<svg width="24" height="24" viewBox="0 0 24 24" fill="none" xmlns="http://www.w3.org/2000/svg">
<g clip-path="url(#clip0_56_51404)">
<rect x="2" y="17" width="3" height="2" fill="#1A84AE"/>
<rect x="16" y="17" width="3" height="2" fill="#1A84AE"/>
<rect width="2" height="2" transform="matrix(-1 0 0 1 3 16)" fill="#1A84AE"/>
<rect width="2" height="2" transform="matrix(-1 0 0 1 3 6)" fill="#1A84AE"/>
<rect width="5" height="2" transform="matrix(-1 0 0 1 7 5)" fill="#1A84AE"/>
<rect y="7" width="2" height="10" fill="#1A84AE"/>
<rect x="22" y="8" width="2" height="8" fill="#1A84AE"/>
<rect x="19" y="7" width="4" height="2" fill="#1A84AE"/>
<rect x="18" y="6" width="2" height="2" fill="#1A84AE"/>
<rect x="18" y="16" width="2" height="2" fill="#1A84AE"/>
<rect x="19" y="15" width="4" height="2" fill="#1A84AE"/>
<rect x="14" y="8" width="2" height="2" fill="#1A84AE"/>
<path d="M15 6H17V8H15V6Z" fill="#1A84AE"/>
<path d="M15 6H17V8H15V6Z" fill="#1A84AE"/>
<path d="M16 4H18V6H16V4Z" fill="#1A84AE"/>
<path d="M16 4H18V6H16V4Z" fill="#1A84AE"/>
<path d="M17 0H19V4H17V0Z" fill="#1A84AE"/>
<path d="M17 0H19V4H17V0Z" fill="#1A84AE"/>
<path d="M16 0H18V2H16V0Z" fill="#1A84AE"/>
<path d="M16 0H18V2H16V0Z" fill="#1A84AE"/>
<rect x="14" y="1" width="2" height="2" fill="#1A84AE"/>
<rect x="13" y="9" width="2" height="2" fill="#1A84AE"/>
<rect x="15" y="9" width="2" height="2" fill="#1A84AE"/>
<rect x="17" y="9" width="2" height="2" fill="#1A84AE"/>
<rect x="19" y="10" width="2" height="2" fill="#1A84AE"/>
<rect x="17" y="12" width="2" height="2" fill="#1A84AE"/>
<rect x="18" y="11" width="2" height="2" fill="#1A84AE"/>
<rect x="5" y="13" width="2" height="2" fill="#1A84AE"/>
<rect x="4" y="12" width="2" height="2" fill="#1A84AE"/>
<rect x="3" y="12" width="2" height="2" fill="#1A84AE"/>
<rect x="7" y="13" width="2" height="2" fill="#1A84AE"/>
<rect x="9" y="13" width="2" height="2" fill="#1A84AE"/>
<rect x="8" y="14" width="2" height="2" fill="#1A84AE"/>
<rect x="7" y="16" width="2" height="2" fill="#1A84AE"/>
<rect x="6" y="18" width="2" height="2" fill="#1A84AE"/>
<rect x="5" y="20" width="2" height="4" fill="#1A84AE"/>
<rect x="5" y="10" width="2" height="2" fill="#1A84AE"/>
<rect x="4" y="11" width="2" height="2" fill="#1A84AE"/>
<rect x="9" y="20" width="2" height="2" fill="#1A84AE"/>
<rect x="8" y="21" width="2" height="2" fill="#1A84AE"/>
<rect x="6" y="22" width="2" height="2" fill="#1A84AE"/>
<rect x="6" y="9" width="2" height="2" fill="#1A84AE"/>
<rect x="10" y="19" width="2" height="2" fill="#1A84AE"/>
<rect x="7" y="8" width="2" height="2" fill="#1A84AE"/>
<rect x="11" y="18" width="2" height="2" fill="#1A84AE"/>
<rect x="8" y="7" width="2" height="2" fill="#1A84AE"/>
<rect x="12" y="17" width="2" height="2" fill="#1A84AE"/>
<rect x="9" y="6" width="2" height="2" fill="#1A84AE"/>
<rect x="13" y="16" width="2" height="2" fill="#1A84AE"/>
<rect x="10" y="5" width="2" height="2" fill="#1A84AE"/>
<rect x="14" y="15" width="2" height="2" fill="#1A84AE"/>
<rect x="11" y="4" width="2" height="2" fill="#1A84AE"/>
<rect x="15" y="14" width="2" height="2" fill="#1A84AE"/>
<rect x="12" y="3" width="2" height="2" fill="#1A84AE"/>
<rect x="16" y="13" width="2" height="2" fill="#1A84AE"/>
<rect x="13" y="2" width="2" height="2" fill="#1A84AE"/>
</g>
<defs>
<clipPath id="clip0_56_51404">
<rect width="24" height="24" fill="white"/>
</clipPath>
</defs>
</svg>
