<svg width="24" height="24" viewBox="0 0 24 24" fill="none" xmlns="http://www.w3.org/2000/svg">
<rect x="15" y="22" width="2" height="6" transform="rotate(90 15 22)" fill="#1A84AE"/>
<rect x="11" y="18" width="2" height="2" transform="rotate(90 11 18)" fill="#1A84AE"/>
<rect x="11" y="13" width="2" height="2" transform="rotate(90 11 13)" fill="#1A84AE"/>
<rect x="13" y="16" width="2" height="2" transform="rotate(90 13 16)" fill="#1A84AE"/>
<rect x="13" y="21" width="2" height="2" transform="rotate(90 13 21)" fill="#1A84AE"/>
<rect x="13" y="11" width="2" height="2" transform="rotate(90 13 11)" fill="#1A84AE"/>
<rect x="15" y="14" width="2" height="2" transform="rotate(90 15 14)" fill="#1A84AE"/>
<rect x="15" y="19" width="2" height="2" transform="rotate(90 15 19)" fill="#1A84AE"/>
<rect x="15" y="9" width="2" height="2" transform="rotate(90 15 9)" fill="#1A84AE"/>
<rect x="8" y="20" width="2" height="3" fill="#1A84AE"/>
<rect x="8" y="15" width="2" height="3" fill="#1A84AE"/>
<rect x="14" y="11" width="2" height="3" fill="#1A84AE"/>
<rect x="8" y="10" width="2" height="3" fill="#1A84AE"/>
<rect x="8" y="8" width="2" height="2" fill="#1A84AE"/>
<rect x="4" y="7" width="15" height="2" fill="#1A84AE"/>
<rect x="3" y="1" width="2" height="7" fill="#1A84AE"/>
<rect x="7" y="1" width="2" height="7" fill="#1A84AE"/>
<rect x="14" y="1" width="2" height="7" fill="#1A84AE"/>
<rect x="18" y="1" width="2" height="7" fill="#1A84AE"/>
<rect x="4" width="15" height="2" fill="#1A84AE"/>
<rect x="14" y="16" width="2" height="3" fill="#1A84AE"/>
<rect x="14" y="21" width="2" height="2" fill="#1A84AE"/>
</svg>
