<svg width="24" height="24" viewBox="0 0 24 24" fill="none" xmlns="http://www.w3.org/2000/svg">
<g clip-path="url(#clip0_56_51456)">
<rect width="12" height="2" transform="matrix(8.74228e-09 1 1 -2.18557e-07 8 2)" fill="#1A84AE"/>
<rect width="4" height="2" transform="matrix(8.74228e-09 1 1 -2.18557e-07 8 18)" fill="#1A84AE"/>
<rect width="6" height="2" transform="matrix(8.74228e-09 1 1 -2.18557e-07 14 16)" fill="#1A84AE"/>
<rect width="9" height="2" transform="matrix(8.74228e-09 1 1 -2.18557e-07 14 2)" fill="#1A84AE"/>
<rect x="13" y="23" width="2" height="2" transform="rotate(-90 13 23)" fill="#1A84AE"/>
<rect x="13" y="3" width="2" height="2" transform="rotate(-90 13 3)" fill="#1A84AE"/>
<rect x="9" y="23" width="2" height="2" transform="rotate(-90 9 23)" fill="#1A84AE"/>
<rect x="9" y="3" width="2" height="2" transform="rotate(-90 9 3)" fill="#1A84AE"/>
<rect x="10" y="24" width="2" height="4" transform="rotate(-90 10 24)" fill="#1A84AE"/>
<rect x="10" y="2" width="2" height="4" transform="rotate(-90 10 2)" fill="#1A84AE"/>
<rect x="6" y="14" width="2" height="2" transform="rotate(-90 6 14)" fill="#1A84AE"/>
<rect x="3" y="18" width="2" height="2" transform="rotate(-90 3 18)" fill="#1A84AE"/>
<rect x="4" y="19" width="2" height="5" transform="rotate(-90 4 19)" fill="#1A84AE"/>
<rect x="2" y="17" width="2" height="2" transform="rotate(-90 2 17)" fill="#1A84AE"/>
<rect x="1" y="16" width="3" height="2" transform="rotate(-90 1 16)" fill="#1A84AE"/>
<rect x="7" y="15" width="2" height="2" transform="rotate(-90 7 15)" fill="#1A84AE"/>
<rect x="5" y="13" width="6" height="2" transform="rotate(-90 5 13)" fill="#1A84AE"/>
<rect y="14" width="7" height="2" transform="rotate(-90 0 14)" fill="#1A84AE"/>
<rect x="4" y="8" width="2" height="2" transform="rotate(-90 4 8)" fill="#1A84AE"/>
<rect x="2" y="7" width="2" height="3" transform="rotate(-90 2 7)" fill="#1A84AE"/>
<rect x="1" y="8" width="2" height="2" transform="rotate(-90 1 8)" fill="#1A84AE"/>
<rect width="2" height="2" transform="matrix(4.37114e-08 -1 -1 -4.37114e-08 18 11)" fill="#1A84AE"/>
<rect width="2" height="2" transform="matrix(4.37114e-08 -1 -1 -4.37114e-08 21 15)" fill="#1A84AE"/>
<rect width="2" height="2" transform="matrix(4.37114e-08 -1 -1 -4.37114e-08 22 14)" fill="#1A84AE"/>
<rect width="2" height="2" transform="matrix(4.37114e-08 -1 -1 -4.37114e-08 20 16)" fill="#1A84AE"/>
<rect width="2" height="4" transform="matrix(4.37114e-08 -1 -1 -4.37114e-08 19 17)" fill="#1A84AE"/>
<rect width="3" height="2" transform="matrix(4.37114e-08 -1 -1 -4.37114e-08 23 13)" fill="#1A84AE"/>
<rect width="2" height="2" transform="matrix(4.37114e-08 -1 -1 -4.37114e-08 20 5)" fill="#1A84AE"/>
<rect width="2" height="2" transform="matrix(4.37114e-08 -1 -1 -4.37114e-08 23 5)" fill="#1A84AE"/>
<rect width="2" height="3" transform="matrix(4.37114e-08 -1 -1 -4.37114e-08 22 4)" fill="#1A84AE"/>
<rect width="2" height="2" transform="matrix(4.37114e-08 -1 -1 -4.37114e-08 17 12)" fill="#1A84AE"/>
<rect width="6" height="2" transform="matrix(4.37114e-08 -1 -1 -4.37114e-08 19 10)" fill="#1A84AE"/>
<rect width="7" height="2" transform="matrix(4.37114e-08 -1 -1 -4.37114e-08 24 11)" fill="#1A84AE"/>
</g>
<defs>
<clipPath id="clip0_56_51456">
<rect width="24" height="24" fill="white"/>
</clipPath>
</defs>
</svg>
