<svg width="24" height="24" viewBox="0 0 24 24" fill="none" xmlns="http://www.w3.org/2000/svg">
<g clip-path="url(#clip0_56_51528)">
<rect width="2" height="2" transform="matrix(4.37114e-08 -1 -1 -4.37114e-08 11 22)" fill="#1A84AE"/>
<rect width="2" height="2" transform="matrix(4.37114e-08 -1 -1 -4.37114e-08 15 22)" fill="#1A84AE"/>
<rect width="2" height="2" transform="matrix(4.37114e-08 -1 -1 -4.37114e-08 13 24)" fill="#1A84AE"/>
<rect width="10" height="2" transform="matrix(4.37114e-08 -1 -1 -4.37114e-08 13 22)" fill="#1A84AE"/>
<rect width="2" height="4" transform="matrix(4.37114e-08 -1 -1 -4.37114e-08 12 21)" fill="#1A84AE"/>
<rect width="2" height="2" transform="matrix(4.37114e-08 -1 -1 -4.37114e-08 11 22)" fill="#1A84AE"/>
<rect width="2" height="2" transform="matrix(4.37114e-08 -1 -1 -4.37114e-08 12 23)" fill="#1A84AE"/>
<rect width="2" height="4" transform="matrix(4.37114e-08 -1 -1 -4.37114e-08 16 21)" fill="#1A84AE"/>
<rect width="2" height="2" transform="matrix(4.37114e-08 -1 -1 -4.37114e-08 14 23)" fill="#1A84AE"/>
<rect width="3" height="2" transform="matrix(-1 0 0 1 17 3)" fill="#1A84AE"/>
<rect width="3" height="2" transform="matrix(-1 0 0 1 10 3)" fill="#1A84AE"/>
<rect width="4" height="2" transform="matrix(6.55671e-08 1 1 -2.91409e-08 5 6)" fill="#1A84AE"/>
<rect width="4" height="2" transform="matrix(4.68336e-08 1 1 -4.07973e-08 17 6)" fill="#1A84AE"/>
<rect width="3" height="2" transform="matrix(4.37114e-08 1 1 -4.37114e-08 16 4)" fill="#1A84AE"/>
<rect width="3" height="2" transform="matrix(4.37114e-08 1 1 -4.37114e-08 6 4)" fill="#1A84AE"/>
<rect width="2" height="6" transform="matrix(6.55671e-08 1 1 -2.91409e-08 9 2)" fill="#1A84AE"/>
<rect x="1" y="10" width="2" height="2" fill="#1A84AE"/>
<rect x="2" y="9" width="2" height="2" fill="#1A84AE"/>
<rect x="3" y="8" width="2" height="2" fill="#1A84AE"/>
<rect width="7" height="2" transform="matrix(1 0 0 -1 2 18)" fill="#1A84AE"/>
<rect width="2" height="2" transform="matrix(1 0 0 -1 1 17)" fill="#1A84AE"/>
<rect width="2" height="3" transform="matrix(1 0 0 -1 0 15)" fill="#1A84AE"/>
<rect x="20" y="9" width="2" height="2" fill="#1A84AE"/>
<rect x="19" y="8" width="2" height="2" fill="#1A84AE"/>
<rect x="6" y="9" width="2" height="2" fill="#1A84AE"/>
<rect x="16" y="9" width="2" height="2" fill="#1A84AE"/>
<rect x="21" y="10" width="2" height="2" fill="#1A84AE"/>
<rect width="7" height="2" transform="matrix(1 0 0 -1 15 18)" fill="#1A84AE"/>
<rect width="2" height="2" transform="matrix(1 0 0 -1 21 17)" fill="#1A84AE"/>
<rect width="2" height="3" transform="matrix(1 0 0 -1 22 15)" fill="#1A84AE"/>
</g>
<defs>
<clipPath id="clip0_56_51528">
<rect width="24" height="24" fill="white"/>
</clipPath>
</defs>
</svg>
