<svg width="24" height="24" viewBox="0 0 24 24" fill="none" xmlns="http://www.w3.org/2000/svg">
<rect x="3" y="2" width="2" height="20" fill="#1A84AE"/>
<rect x="4" y="21" width="16" height="2" fill="#1A84AE"/>
<rect x="4" y="1" width="9" height="2" fill="#1A84AE"/>
<rect x="12" y="9" width="7" height="2" fill="#1A84AE"/>
<rect x="13" y="1" width="9" height="2" transform="rotate(90 13 1)" fill="#1A84AE"/>
<rect x="9" y="5" width="2" height="2" transform="rotate(90 9 5)" fill="#1A84AE"/>
<rect x="9" y="9" width="2" height="2" transform="rotate(90 9 9)" fill="#1A84AE"/>
<rect x="17" y="13" width="2" height="10" transform="rotate(90 17 13)" fill="#1A84AE"/>
<rect x="17" y="17" width="2" height="10" transform="rotate(90 17 17)" fill="#1A84AE"/>
<rect x="19" y="9" width="2" height="13" fill="#1A84AE"/>
<rect x="19" y="7" width="2" height="2" fill="#1A84AE"/>
<rect x="18" y="6" width="2" height="2" fill="#1A84AE"/>
<rect x="17" y="5" width="2" height="2" fill="#1A84AE"/>
<rect x="16" y="4" width="2" height="2" fill="#1A84AE"/>
<rect x="15" y="3" width="2" height="2" fill="#1A84AE"/>
<rect x="14" y="2" width="2" height="2" fill="#1A84AE"/>
<rect x="13" y="1" width="2" height="2" fill="#1A84AE"/>
</svg>
