<svg width="24" height="24" viewBox="0 0 24 24" fill="none" xmlns="http://www.w3.org/2000/svg">
<rect x="11" y="13" width="2" height="2" fill="#1A84AE"/>
<rect x="9" y="16" width="2" height="2" fill="#1A84AE"/>
<rect x="13" y="16" width="2" height="2" fill="#1A84AE"/>
<rect x="11" y="17" width="2" height="7" fill="#1A84AE"/>
<rect x="13" y="21" width="2" height="2" fill="#1A84AE"/>
<rect x="14" y="20" width="3" height="2" fill="#1A84AE"/>
<rect x="9" y="21" width="2" height="2" fill="#1A84AE"/>
<rect x="7" y="20" width="3" height="2" fill="#1A84AE"/>
<rect x="9" y="12" width="2" height="5" fill="#1A84AE"/>
<rect x="13" y="12" width="2" height="5" fill="#1A84AE"/>
<rect x="9" y="9" width="2" height="2" transform="rotate(90 9 9)" fill="#1A84AE"/>
<rect x="6" y="7" width="2" height="2" transform="rotate(90 6 7)" fill="#1A84AE"/>
<rect x="6" y="11" width="2" height="2" transform="rotate(90 6 11)" fill="#1A84AE"/>
<rect x="5" y="9" width="2" height="2" transform="rotate(90 5 9)" fill="#1A84AE"/>
<rect x="10" y="7" width="2" height="5" transform="rotate(90 10 7)" fill="#1A84AE"/>
<rect x="10" y="11" width="2" height="5" transform="rotate(90 10 11)" fill="#1A84AE"/>
<rect width="2" height="2" transform="matrix(4.37114e-08 1 1 -4.37114e-08 15 9)" fill="#1A84AE"/>
<rect width="2" height="2" transform="matrix(4.37114e-08 1 1 -4.37114e-08 18 7)" fill="#1A84AE"/>
<rect width="2" height="2" transform="matrix(4.37114e-08 1 1 -4.37114e-08 18 11)" fill="#1A84AE"/>
<rect width="2" height="2" transform="matrix(4.37114e-08 1 1 -4.37114e-08 19 9)" fill="#1A84AE"/>
<rect width="2" height="5" transform="matrix(4.37114e-08 1 1 -4.37114e-08 14 7)" fill="#1A84AE"/>
<rect width="2" height="5" transform="matrix(4.37114e-08 1 1 -4.37114e-08 14 11)" fill="#1A84AE"/>
<rect width="2" height="2" transform="matrix(1 0 0 -1 11 7)" fill="#1A84AE"/>
<rect width="2" height="2" transform="matrix(1 0 0 -1 9 4)" fill="#1A84AE"/>
<rect width="2" height="2" transform="matrix(1 0 0 -1 13 4)" fill="#1A84AE"/>
<rect width="2" height="2" transform="matrix(1 0 0 -1 11 3)" fill="#1A84AE"/>
<rect width="2" height="5" transform="matrix(1 0 0 -1 9 8)" fill="#1A84AE"/>
<rect width="2" height="5" transform="matrix(1 0 0 -1 13 8)" fill="#1A84AE"/>
<rect x="7" y="13" width="3" height="2" transform="rotate(90 7 13)" fill="#1A84AE"/>
<rect x="9" y="15" width="2" height="3" transform="rotate(90 9 15)" fill="#1A84AE"/>
<rect width="3" height="2" transform="matrix(-4.37114e-08 -1 -1 4.37114e-08 7 7)" fill="#1A84AE"/>
<rect width="2" height="3" transform="matrix(-4.37114e-08 -1 -1 4.37114e-08 9 5)" fill="#1A84AE"/>
<rect width="3" height="2" transform="matrix(4.37114e-08 1 1 -4.37114e-08 17 13)" fill="#1A84AE"/>
<rect width="2" height="3" transform="matrix(4.37114e-08 1 1 -4.37114e-08 15 15)" fill="#1A84AE"/>
<rect x="17" y="7" width="3" height="2" transform="rotate(-90 17 7)" fill="#1A84AE"/>
<rect x="15" y="5" width="2" height="3" transform="rotate(-90 15 5)" fill="#1A84AE"/>
</svg>
