<svg width="24" height="24" viewBox="0 0 24 24" fill="none" xmlns="http://www.w3.org/2000/svg">
<g clip-path="url(#clip0_56_51492)">
<rect x="6" y="5" width="2" height="2" fill="#1A84AE"/>
<rect x="17" y="6" width="2" height="2" fill="#1A84AE"/>
<rect x="18" y="1" width="2" height="2" fill="#1A84AE"/>
<rect x="19" y="2" width="2" height="2" fill="#1A84AE"/>
<rect x="20" y="3" width="2" height="2" fill="#1A84AE"/>
<rect x="21" y="4" width="2" height="2" fill="#1A84AE"/>
<rect x="18" y="7" width="2" height="2" fill="#1A84AE"/>
<rect x="19" y="8" width="3" height="2" fill="#1A84AE"/>
<rect x="21" y="6" width="2" height="3" fill="#1A84AE"/>
<rect x="2" y="6" width="5" height="2" fill="#1A84AE"/>
<rect x="2" width="5" height="2" fill="#1A84AE"/>
<rect x="1" y="1" width="2" height="6" fill="#1A84AE"/>
<rect x="10" y="1" width="2" height="4" transform="rotate(90 10 1)" fill="#1A84AE"/>
<rect x="18" y="1" width="2" height="4" transform="rotate(90 18 1)" fill="#1A84AE"/>
<rect x="10" y="5" width="2" height="4" transform="rotate(90 10 5)" fill="#1A84AE"/>
<rect x="18" y="5" width="2" height="4" transform="rotate(90 18 5)" fill="#1A84AE"/>
<rect x="14" y="22" width="2" height="4" transform="rotate(90 14 22)" fill="#1A84AE"/>
<rect x="11" y="21" width="2" height="2" transform="rotate(90 11 21)" fill="#1A84AE"/>
<rect x="15" y="21" width="2" height="2" transform="rotate(90 15 21)" fill="#1A84AE"/>
<rect x="15" y="6" width="2" height="6" transform="rotate(90 15 6)" fill="#1A84AE"/>
<rect x="15" width="2" height="6" transform="rotate(90 15 0)" fill="#1A84AE"/>
<rect x="8" y="13" width="2" height="9" fill="#1A84AE"/>
<rect x="10" y="13" width="2" height="9" fill="#1A84AE"/>
<rect x="11" y="11" width="2" height="2" fill="#1A84AE"/>
<rect x="12" y="13" width="2" height="9" fill="#1A84AE"/>
<rect x="14" y="13" width="2" height="9" fill="#1A84AE"/>
<rect x="13" y="6" width="2" height="8" fill="#1A84AE"/>
<rect x="9" y="6" width="2" height="8" fill="#1A84AE"/>
</g>
<defs>
<clipPath id="clip0_56_51492">
<rect width="24" height="24" fill="white"/>
</clipPath>
</defs>
</svg>
