<svg width="24" height="24" viewBox="0 0 24 24" fill="none" xmlns="http://www.w3.org/2000/svg">
<g clip-path="url(#clip0_56_51395)">
<rect width="6" height="2" transform="matrix(8.74228e-09 1 1 -2.18557e-07 6 8)" fill="#045da5"/>
<rect width="2" height="2" transform="matrix(8.74228e-09 1 1 -2.18557e-07 20 20)" fill="#045da5"/>
<rect width="2" height="2" transform="matrix(8.74228e-09 1 1 -2.18557e-07 19 21)" fill="#045da5"/>
<rect width="3" height="2" transform="matrix(8.74228e-09 1 1 -2.18557e-07 21 18)" fill="#045da5"/>
<rect width="3" height="2" transform="matrix(8.74228e-09 1 1 -2.18557e-07 22 16)" fill="#045da5"/>
<rect width="8" height="2" transform="matrix(8.74228e-09 1 1 -2.18557e-07 22 8)" fill="#045da5"/>
<rect width="5" height="2" transform="matrix(-4.37114e-08 -1 -1 2.53526e-07 20 12)" fill="#045da5"/>
<rect width="3" height="2" transform="matrix(-4.37114e-08 -1 -1 2.53526e-07 16 10)" fill="#045da5"/>
<rect width="5" height="2" transform="matrix(8.74228e-09 1 1 -2.18557e-07 10 7)" fill="#045da5"/>
<rect x="5" y="23" width="2" height="3" transform="rotate(-90 5 23)" fill="#045da5"/>
<rect x="9" y="9" width="2" height="2" transform="rotate(-90 9 9)" fill="#045da5"/>
<rect x="7" y="9" width="2" height="2" transform="rotate(-90 7 9)" fill="#045da5"/>
<rect x="15" y="8" width="2" height="2" transform="rotate(-90 15 8)" fill="#045da5"/>
<rect x="17" y="8" width="2" height="2" transform="rotate(-90 17 8)" fill="#045da5"/>
<rect x="13" y="8" width="2" height="2" transform="rotate(-90 13 8)" fill="#045da5"/>
<rect x="11" y="8" width="2" height="2" transform="rotate(-90 11 8)" fill="#045da5"/>
<rect x="20" y="9" width="2" height="2" transform="rotate(-90 20 9)" fill="#045da5"/>
<rect x="16" y="7" width="2" height="2" transform="rotate(-90 16 7)" fill="#045da5"/>
<rect x="12" y="7" width="2" height="2" transform="rotate(-90 12 7)" fill="#045da5"/>
<rect x="21" y="10" width="2" height="2" transform="rotate(-90 21 10)" fill="#045da5"/>
<rect x="8" y="8" width="2" height="2" transform="rotate(-90 8 8)" fill="#045da5"/>
<rect x="7" y="24" width="2" height="13" transform="rotate(-90 7 24)" fill="#045da5"/>
<rect x="3" y="13" width="2" height="2" transform="rotate(-90 3 13)" fill="#045da5"/>
<rect x="4" y="12" width="2" height="2" transform="rotate(-90 4 12)" fill="#045da5"/>
<rect x="3" y="21" width="2" height="2" transform="rotate(-90 3 21)" fill="#045da5"/>
<rect x="2" y="20" width="3" height="2" transform="rotate(-90 2 20)" fill="#045da5"/>
<rect x="4" y="22" width="2" height="2" transform="rotate(-90 4 22)" fill="#045da5"/>
<rect x="5" y="16" width="2" height="2" transform="rotate(-90 5 16)" fill="#045da5"/>
<rect x="2" y="14" width="2" height="2" transform="rotate(-90 2 14)" fill="#045da5"/>
<rect x="1" y="16" width="2" height="2" transform="rotate(-90 1 16)" fill="#045da5"/>
<rect x="1" y="18" width="2" height="2" transform="rotate(-90 1 18)" fill="#045da5"/>
</g>
<defs>
<clipPath id="clip0_56_51395">
<rect width="24" height="24" fill="white"/>
</clipPath>
</defs>
</svg>
