<svg width="24" height="24" viewBox="0 0 24 24" fill="none" xmlns="http://www.w3.org/2000/svg">
<g clip-path="url(#clip0_56_51399)">
<rect x="6" y="4" width="3" height="2" transform="rotate(180 6 4)" fill="#1A84AE"/>
<rect x="8" y="3" width="3" height="2" transform="rotate(180 8 3)" fill="#1A84AE"/>
<rect x="13" y="2" width="6" height="2" transform="rotate(180 13 2)" fill="#1A84AE"/>
<rect x="19" y="2" width="6" height="2" transform="rotate(180 19 2)" fill="#1A84AE"/>
<rect x="17" y="3" width="3" height="2" fill="#1A84AE"/>
<rect x="18" y="3" width="2" height="2" transform="rotate(-90 18 3)" fill="#1A84AE"/>
<rect x="17" y="7" width="3" height="2" fill="#1A84AE"/>
<rect x="20" y="12" width="3" height="2" transform="rotate(-90 20 12)" fill="#1A84AE"/>
<rect x="19" y="8" width="3" height="2" transform="rotate(-90 19 8)" fill="#1A84AE"/>
<rect x="21" y="13" width="4" height="2" transform="rotate(180 21 13)" fill="#1A84AE"/>
<rect width="4" height="2" transform="matrix(1 0 0 -1 3 15)" fill="#1A84AE"/>
<rect width="2" height="3" transform="matrix(1 0 0 -1 20 16)" fill="#1A84AE"/>
<rect width="2" height="11" transform="matrix(1 0 0 -1 2 14)" fill="#1A84AE"/>
<rect width="2" height="3" transform="matrix(1 0 0 -1 7 17)" fill="#1A84AE"/>
<rect width="2" height="6" transform="matrix(1 0 0 -1 8 22)" fill="#1A84AE"/>
<rect width="2" height="4" transform="matrix(1 0 0 -1 14 22)" fill="#1A84AE"/>
<rect width="2" height="2" transform="matrix(1 0 0 -1 13 23)" fill="#1A84AE"/>
<rect width="2" height="3" transform="matrix(1 0 0 -1 13 18)" fill="#1A84AE"/>
<rect width="6" height="2" transform="matrix(1 0 0 -1 15 17)" fill="#1A84AE"/>
<rect width="2" height="4" transform="matrix(-4.37114e-08 -1 -1 4.37114e-08 13 24)" fill="#1A84AE"/>
</g>
<defs>
<clipPath id="clip0_56_51399">
<rect width="24" height="24" fill="white"/>
</clipPath>
</defs>
</svg>
