<svg width="24" height="24" viewBox="0 0 24 24" fill="none" xmlns="http://www.w3.org/2000/svg">
<g clip-path="url(#clip0_56_51394)">
<rect width="10" height="2" transform="matrix(8.74228e-09 1 1 -2.18557e-07 6 4)" fill="#1A84AE"/>
<rect width="3" height="2" transform="matrix(8.74228e-09 1 1 -2.18557e-07 20 20)" fill="#1A84AE"/>
<rect width="3" height="2" transform="matrix(8.74228e-09 1 1 -2.18557e-07 21 18)" fill="#1A84AE"/>
<rect width="3" height="2" transform="matrix(8.74228e-09 1 1 -2.18557e-07 22 16)" fill="#1A84AE"/>
<rect width="9" height="2" transform="matrix(8.74228e-09 1 1 -2.18557e-07 22 7)" fill="#1A84AE"/>
<rect width="9" height="2" transform="matrix(-4.37114e-08 -1 -1 2.53526e-07 20 12)" fill="#1A84AE"/>
<rect width="9" height="2" transform="matrix(-4.37114e-08 -1 -1 2.53526e-07 16 10)" fill="#1A84AE"/>
<rect width="4" height="2" transform="matrix(1 0 -2.09815e-07 -1 11 2)" fill="#1A84AE"/>
<rect width="11" height="2" transform="matrix(8.74228e-09 1 1 -2.18557e-07 10 1)" fill="#1A84AE"/>
<rect x="5" y="23" width="2" height="3" transform="rotate(-90 5 23)" fill="#1A84AE"/>
<rect x="8" y="4" width="2" height="2" transform="rotate(-90 8 4)" fill="#1A84AE"/>
<rect x="16" y="3" width="2" height="2" transform="rotate(-90 16 3)" fill="#1A84AE"/>
<rect x="20" y="7" width="2" height="2" transform="rotate(-90 20 7)" fill="#1A84AE"/>
<rect x="17" y="4" width="2" height="2" transform="rotate(-90 17 4)" fill="#1A84AE"/>
<rect x="21" y="8" width="2" height="2" transform="rotate(-90 21 8)" fill="#1A84AE"/>
<rect x="7" y="5" width="2" height="2" transform="rotate(-90 7 5)" fill="#1A84AE"/>
<rect x="7" y="24" width="2" height="14" transform="rotate(-90 7 24)" fill="#1A84AE"/>
<rect x="4" y="15" width="2" height="2" transform="rotate(-90 4 15)" fill="#1A84AE"/>
<rect x="3" y="21" width="2" height="2" transform="rotate(-90 3 21)" fill="#1A84AE"/>
<rect x="2" y="20" width="2" height="2" transform="rotate(-90 2 20)" fill="#1A84AE"/>
<rect x="1" y="19" width="3" height="2" transform="rotate(-90 1 19)" fill="#1A84AE"/>
<rect x="4" y="22" width="2" height="2" transform="rotate(-90 4 22)" fill="#1A84AE"/>
<rect x="5" y="16" width="2" height="2" transform="rotate(-90 5 16)" fill="#1A84AE"/>
<rect x="1" y="12" width="4" height="2" fill="#1A84AE"/>
<rect y="17" width="4" height="2" transform="rotate(-90 0 17)" fill="#1A84AE"/>
</g>
<defs>
<clipPath id="clip0_56_51394">
<rect width="24" height="24" fill="white"/>
</clipPath>
</defs>
</svg>
