<svg width="24" height="24" viewBox="0 0 24 24" fill="none" xmlns="http://www.w3.org/2000/svg">
<g clip-path="url(#clip0_56_51398)">
<rect width="3" height="2" transform="matrix(-1 -3.49691e-08 1.74846e-07 1 6 20)" fill="#1A84AE"/>
<rect width="3" height="2" transform="matrix(-1 -3.49691e-08 1.74846e-07 1 8 21)" fill="#1A84AE"/>
<rect width="6" height="2" transform="matrix(-1 -3.49691e-08 1.74846e-07 1 13 22)" fill="#1A84AE"/>
<rect width="6" height="2" transform="matrix(-1 -3.49691e-08 1.74846e-07 1 19 22)" fill="#1A84AE"/>
<rect width="3" height="2" transform="matrix(1 0 -2.09815e-07 -1 17 21)" fill="#1A84AE"/>
<rect width="2" height="2" transform="matrix(-4.37114e-08 1 1 -1.66103e-07 18 21)" fill="#1A84AE"/>
<rect width="3" height="2" transform="matrix(1 0 -2.09815e-07 -1 17 17)" fill="#1A84AE"/>
<rect width="3" height="2" transform="matrix(-4.37114e-08 1 1 -1.66103e-07 20 12)" fill="#1A84AE"/>
<rect width="3" height="2" transform="matrix(-4.37114e-08 1 1 -1.66103e-07 19 16)" fill="#1A84AE"/>
<rect width="4" height="2" transform="matrix(-1 -3.49691e-08 1.74846e-07 1 21 11)" fill="#1A84AE"/>
<rect x="3" y="9" width="4" height="2" fill="#1A84AE"/>
<rect x="20" y="8" width="2" height="3" fill="#1A84AE"/>
<rect x="2" y="10" width="2" height="11" fill="#1A84AE"/>
<rect x="7" y="7" width="2" height="3" fill="#1A84AE"/>
<rect x="8" y="2" width="2" height="6" fill="#1A84AE"/>
<rect x="14" y="2" width="2" height="4" fill="#1A84AE"/>
<rect x="13" y="1" width="2" height="2" fill="#1A84AE"/>
<rect x="13" y="6" width="2" height="3" fill="#1A84AE"/>
<rect x="15" y="7" width="6" height="2" fill="#1A84AE"/>
<rect x="13" width="2" height="4" transform="rotate(90 13 0)" fill="#1A84AE"/>
</g>
<defs>
<clipPath id="clip0_56_51398">
<rect width="24" height="24" fill="white"/>
</clipPath>
</defs>
</svg>
