<svg width="24" height="24" viewBox="0 0 24 24" fill="none" xmlns="http://www.w3.org/2000/svg">
<rect x="7" y="17" width="2" height="2" fill="#1A84AE"/>
<rect x="6" y="16" width="2" height="2" fill="#1A84AE"/>
<rect x="5" y="15" width="2" height="2" fill="#1A84AE"/>
<rect x="4" y="14" width="2" height="2" fill="#1A84AE"/>
<rect x="3" y="13" width="2" height="2" fill="#1A84AE"/>
<rect x="2" y="12" width="2" height="2" fill="#1A84AE"/>
<rect x="1" y="10" width="2" height="3" fill="#1A84AE"/>
<rect x="8" y="18" width="2" height="2" fill="#1A84AE"/>
<rect x="9" y="19" width="2" height="2" fill="#1A84AE"/>
<rect x="11" y="21" width="2" height="2" fill="#1A84AE"/>
<rect x="10" y="20" width="2" height="2" fill="#1A84AE"/>
<rect x="12" y="20" width="2" height="2" fill="#1A84AE"/>
<rect x="13" y="19" width="2" height="2" fill="#1A84AE"/>
<rect x="14" y="18" width="2" height="2" fill="#1A84AE"/>
<rect x="15" y="17" width="2" height="2" fill="#1A84AE"/>
<rect x="16" y="16" width="2" height="2" fill="#1A84AE"/>
<rect x="17" y="15" width="2" height="2" fill="#1A84AE"/>
<rect x="18" y="14" width="2" height="2" fill="#1A84AE"/>
<rect x="19" y="13" width="2" height="2" fill="#1A84AE"/>
<rect x="20" y="12" width="2" height="2" fill="#1A84AE"/>
<rect x="21" y="10" width="2" height="3" fill="#1A84AE"/>
<rect y="5" width="2" height="6" fill="#1A84AE"/>
<rect width="2" height="6" transform="matrix(-1 0 0 1 24 5)" fill="#1A84AE"/>
<rect x="3" y="2" width="3" height="2" fill="#1A84AE"/>
<rect width="3" height="2" transform="matrix(-1 0 0 1 21 2)" fill="#1A84AE"/>
<rect x="2" y="3" width="2" height="2" fill="#1A84AE"/>
<rect width="2" height="2" transform="matrix(-1 0 0 1 22 3)" fill="#1A84AE"/>
<rect x="1" y="4" width="2" height="2" fill="#1A84AE"/>
<rect width="2" height="2" transform="matrix(-1 0 0 1 23 4)" fill="#1A84AE"/>
<rect x="8" y="2" width="3" height="2" fill="#1A84AE"/>
<rect width="3" height="2" transform="matrix(-1 0 0 1 16 2)" fill="#1A84AE"/>
<rect x="10" y="3" width="2" height="2" fill="#1A84AE"/>
<rect width="2" height="2" transform="matrix(-1 0 0 1 14 3)" fill="#1A84AE"/>
<rect x="11" y="4" width="2" height="2" fill="#1A84AE"/>
<rect x="5" y="1" width="4" height="2" fill="#1A84AE"/>
<rect width="4" height="2" transform="matrix(-1 0 0 1 19 1)" fill="#1A84AE"/>
</svg>
