<svg width="24" height="24" viewBox="0 0 24 24" fill="none" xmlns="http://www.w3.org/2000/svg">
<g clip-path="url(#clip0_56_51438)">
<rect y="15" width="13" height="2" transform="rotate(-90 0 15)" fill="#1A84AE"/>
<rect width="2" height="2" transform="matrix(3.55155e-08 1 1 -5.37986e-08 1 1)" fill="#1A84AE"/>
<rect width="2" height="2" transform="matrix(3.55155e-08 1 1 -5.37986e-08 8 1)" fill="#1A84AE"/>
<rect width="2" height="2" transform="matrix(3.55155e-08 1 1 -5.37986e-08 1 14)" fill="#1A84AE"/>
<rect width="2" height="2" transform="matrix(3.55155e-08 1 1 -5.37986e-08 8 14)" fill="#1A84AE"/>
<rect width="2" height="7" transform="matrix(3.55155e-08 1 1 -5.37986e-08 2 0)" fill="#1A84AE"/>
<rect width="2" height="7" transform="matrix(5.19073e-08 -1 -1 -3.36241e-08 9 17)" fill="#1A84AE"/>
<rect width="2" height="2" transform="matrix(5.19073e-08 -1 -1 -3.36241e-08 5 7)" fill="#1A84AE"/>
<rect width="2" height="2" transform="matrix(5.19073e-08 -1 -1 -3.36241e-08 5 10)" fill="#1A84AE"/>
<rect width="2" height="2" transform="matrix(5.19073e-08 -1 -1 -3.36241e-08 8 10)" fill="#1A84AE"/>
<rect width="2" height="2" transform="matrix(5.19073e-08 -1 -1 -3.36241e-08 5 13)" fill="#1A84AE"/>
<rect width="2" height="2" transform="matrix(5.19073e-08 -1 -1 -3.36241e-08 8 13)" fill="#1A84AE"/>
<rect width="2" height="2" transform="matrix(5.19073e-08 -1 -1 -3.36241e-08 8 7)" fill="#1A84AE"/>
<rect width="1" height="3" transform="matrix(5.19073e-08 -1 -1 -3.36241e-08 7 4)" fill="#1A84AE"/>
<rect x="9" y="15" width="13" height="2" transform="rotate(-90 9 15)" fill="#1A84AE"/>
<rect x="13" y="22" width="13" height="2" transform="rotate(-90 13 22)" fill="#1A84AE"/>
<rect width="2" height="2" transform="matrix(3.55155e-08 1 1 -5.37986e-08 14 8)" fill="#1A84AE"/>
<rect width="2" height="2" transform="matrix(3.55155e-08 1 1 -5.37986e-08 21 8)" fill="#1A84AE"/>
<rect width="2" height="2" transform="matrix(3.55155e-08 1 1 -5.37986e-08 14 21)" fill="#1A84AE"/>
<rect width="2" height="2" transform="matrix(3.55155e-08 1 1 -5.37986e-08 21 21)" fill="#1A84AE"/>
<rect width="2" height="7" transform="matrix(3.55155e-08 1 1 -5.37986e-08 15 7)" fill="#1A84AE"/>
<rect width="2" height="7" transform="matrix(5.19073e-08 -1 -1 -3.36241e-08 22 24)" fill="#1A84AE"/>
<rect width="2" height="2" transform="matrix(5.19073e-08 -1 -1 -3.36241e-08 18 14)" fill="#1A84AE"/>
<rect width="2" height="2" transform="matrix(5.19073e-08 -1 -1 -3.36241e-08 18 17)" fill="#1A84AE"/>
<rect width="2" height="2" transform="matrix(5.19073e-08 -1 -1 -3.36241e-08 21 17)" fill="#1A84AE"/>
<rect width="2" height="2" transform="matrix(5.19073e-08 -1 -1 -3.36241e-08 18 20)" fill="#1A84AE"/>
<rect width="2" height="2" transform="matrix(5.19073e-08 -1 -1 -3.36241e-08 21 20)" fill="#1A84AE"/>
<rect width="2" height="2" transform="matrix(5.19073e-08 -1 -1 -3.36241e-08 21 14)" fill="#1A84AE"/>
<rect width="1" height="3" transform="matrix(5.19073e-08 -1 -1 -3.36241e-08 20 11)" fill="#1A84AE"/>
<rect x="22" y="22" width="13" height="2" transform="rotate(-90 22 22)" fill="#1A84AE"/>
<rect width="2" height="2" transform="matrix(3.55155e-08 1 1 -5.37986e-08 12 2)" fill="#1A84AE"/>
<rect width="2" height="6" transform="matrix(3.55155e-08 1 1 -5.37986e-08 14 2)" fill="#1A84AE"/>
<rect width="3" height="2" transform="matrix(3.55155e-08 1 1 -5.37986e-08 18 3)" fill="#1A84AE"/>
<rect width="2" height="2" transform="matrix(3.55155e-08 1 1 -5.37986e-08 13 3)" fill="#1A84AE"/>
<rect width="2" height="2" transform="matrix(3.55155e-08 1 1 -5.37986e-08 14 4)" fill="#1A84AE"/>
<rect width="2" height="2" transform="matrix(3.55155e-08 1 1 -5.37986e-08 13 1)" fill="#1A84AE"/>
<rect width="2" height="2" transform="matrix(3.55155e-08 1 1 -5.37986e-08 14 0)" fill="#1A84AE"/>
<rect width="2" height="2" transform="matrix(5.19073e-08 -1 -1 -3.36241e-08 12 22)" fill="#1A84AE"/>
<rect width="2" height="6" transform="matrix(5.19073e-08 -1 -1 -3.36241e-08 10 22)" fill="#1A84AE"/>
<rect width="3" height="2" transform="matrix(5.19073e-08 -1 -1 -3.36241e-08 6 21)" fill="#1A84AE"/>
<rect width="2" height="2" transform="matrix(5.19073e-08 -1 -1 -3.36241e-08 11 21)" fill="#1A84AE"/>
<rect width="2" height="2" transform="matrix(5.19073e-08 -1 -1 -3.36241e-08 10 20)" fill="#1A84AE"/>
<rect width="2" height="2" transform="matrix(5.19073e-08 -1 -1 -3.36241e-08 11 23)" fill="#1A84AE"/>
<rect width="2" height="2" transform="matrix(5.19073e-08 -1 -1 -3.36241e-08 10 24)" fill="#1A84AE"/>
</g>
<defs>
<clipPath id="clip0_56_51438">
<rect width="24" height="24" fill="white"/>
</clipPath>
</defs>
</svg>
