<svg width="24" height="24" viewBox="0 0 24 24" fill="none" xmlns="http://www.w3.org/2000/svg">
<g clip-path="url(#clip0_56_51437)">
<rect x="4" y="22" width="20" height="2" transform="rotate(-90 4 22)" fill="#1A84AE"/>
<rect width="2" height="2" transform="matrix(3.55155e-08 1 1 -5.37986e-08 5 1)" fill="#1A84AE"/>
<rect width="2" height="2" transform="matrix(3.55155e-08 1 1 -5.37986e-08 17 1)" fill="#1A84AE"/>
<rect width="2" height="2" transform="matrix(3.55155e-08 1 1 -5.37986e-08 5 21)" fill="#1A84AE"/>
<rect width="2" height="2" transform="matrix(3.55155e-08 1 1 -5.37986e-08 17 21)" fill="#1A84AE"/>
<rect width="2" height="12" transform="matrix(3.55155e-08 1 1 -5.37986e-08 6 0)" fill="#1A84AE"/>
<rect width="2" height="12" transform="matrix(5.19073e-08 -1 -1 -3.36241e-08 18 24)" fill="#1A84AE"/>
<rect width="2" height="2" transform="matrix(5.19073e-08 -1 -1 -3.36241e-08 10 8)" fill="#1A84AE"/>
<rect width="2" height="2" transform="matrix(5.19073e-08 -1 -1 -3.36241e-08 10 11)" fill="#1A84AE"/>
<rect width="2" height="2" transform="matrix(5.19073e-08 -1 -1 -3.36241e-08 10 14)" fill="#1A84AE"/>
<rect width="2" height="2" transform="matrix(5.19073e-08 -1 -1 -3.36241e-08 10 17)" fill="#1A84AE"/>
<rect width="2" height="2" transform="matrix(5.19073e-08 -1 -1 -3.36241e-08 13 8)" fill="#1A84AE"/>
<rect width="2" height="4" transform="matrix(5.19073e-08 -1 -1 -3.36241e-08 14 5)" fill="#1A84AE"/>
<rect width="2" height="2" transform="matrix(5.19073e-08 -1 -1 -3.36241e-08 13 11)" fill="#1A84AE"/>
<rect width="2" height="2" transform="matrix(5.19073e-08 -1 -1 -3.36241e-08 13 14)" fill="#1A84AE"/>
<rect width="2" height="2" transform="matrix(5.19073e-08 -1 -1 -3.36241e-08 13 17)" fill="#1A84AE"/>
<rect width="2" height="2" transform="matrix(5.19073e-08 -1 -1 -3.36241e-08 13 20)" fill="#1A84AE"/>
<rect width="2" height="2" transform="matrix(5.19073e-08 -1 -1 -3.36241e-08 16 8)" fill="#1A84AE"/>
<rect width="2" height="2" transform="matrix(5.19073e-08 -1 -1 -3.36241e-08 16 11)" fill="#1A84AE"/>
<rect width="2" height="2" transform="matrix(5.19073e-08 -1 -1 -3.36241e-08 16 14)" fill="#1A84AE"/>
<rect width="2" height="2" transform="matrix(5.19073e-08 -1 -1 -3.36241e-08 16 17)" fill="#1A84AE"/>
<rect x="18" y="22" width="20" height="2" transform="rotate(-90 18 22)" fill="#1A84AE"/>
</g>
<defs>
<clipPath id="clip0_56_51437">
<rect width="24" height="24" fill="white"/>
</clipPath>
</defs>
</svg>
