<svg width="24" height="24" viewBox="0 0 24 24" fill="none" xmlns="http://www.w3.org/2000/svg">
<g clip-path="url(#clip0_56_51432)">
<rect x="10" y="14" width="4" height="4" transform="rotate(-90 10 14)" fill="#1A84AE"/>
<rect x="9" y="13" width="2" height="1" transform="rotate(-90 9 13)" fill="#1A84AE"/>
<rect x="11" y="9" width="2" height="1" fill="#1A84AE"/>
<rect x="14" y="13" width="2" height="1" transform="rotate(-90 14 13)" fill="#1A84AE"/>
<rect x="11" y="21" width="7" height="2" transform="rotate(-90 11 21)" fill="#1A84AE"/>
<rect x="20" y="14" width="4" height="2" transform="rotate(-90 20 14)" fill="#1A84AE"/>
<rect x="21" y="15" width="2" height="2" transform="rotate(-90 21 15)" fill="#1A84AE"/>
<rect x="21" y="11" width="2" height="2" transform="rotate(-90 21 11)" fill="#1A84AE"/>
<rect x="22" y="16" width="2" height="2" transform="rotate(-90 22 16)" fill="#1A84AE"/>
<rect x="22" y="10" width="2" height="2" transform="rotate(-90 22 10)" fill="#1A84AE"/>
<rect width="4" height="2" transform="matrix(4.37114e-08 -1 -1 -4.37114e-08 4 14)" fill="#1A84AE"/>
<rect width="2" height="2" transform="matrix(4.37114e-08 -1 -1 -4.37114e-08 3 15)" fill="#1A84AE"/>
<rect width="2" height="2" transform="matrix(4.37114e-08 -1 -1 -4.37114e-08 3 11)" fill="#1A84AE"/>
<rect width="2" height="2" transform="matrix(4.37114e-08 -1 -1 -4.37114e-08 2 16)" fill="#1A84AE"/>
<rect width="2" height="2" transform="matrix(4.37114e-08 -1 -1 -4.37114e-08 2 10)" fill="#1A84AE"/>
<rect x="16" y="14" width="4" height="2" transform="rotate(-90 16 14)" fill="#1A84AE"/>
<rect x="17" y="16" width="3" height="2" transform="rotate(-90 17 16)" fill="#1A84AE"/>
<rect x="17" y="11" width="3" height="2" transform="rotate(-90 17 11)" fill="#1A84AE"/>
<rect x="18" y="17" width="2" height="2" transform="rotate(-90 18 17)" fill="#1A84AE"/>
<rect x="18" y="9" width="2" height="2" transform="rotate(-90 18 9)" fill="#1A84AE"/>
<rect x="19" y="18" width="2" height="2" transform="rotate(-90 19 18)" fill="#1A84AE"/>
<rect x="19" y="8" width="2" height="2" transform="rotate(-90 19 8)" fill="#1A84AE"/>
<rect width="4" height="2" transform="matrix(4.37114e-08 -1 -1 -4.37114e-08 8 14)" fill="#1A84AE"/>
<rect width="3" height="2" transform="matrix(4.37114e-08 -1 -1 -4.37114e-08 7 16)" fill="#1A84AE"/>
<rect width="3" height="2" transform="matrix(4.37114e-08 -1 -1 -4.37114e-08 7 11)" fill="#1A84AE"/>
<rect width="2" height="2" transform="matrix(4.37114e-08 -1 -1 -4.37114e-08 6 17)" fill="#1A84AE"/>
<rect width="2" height="2" transform="matrix(4.37114e-08 -1 -1 -4.37114e-08 6 9)" fill="#1A84AE"/>
<rect width="2" height="2" transform="matrix(4.37114e-08 -1 -1 -4.37114e-08 5 18)" fill="#1A84AE"/>
<rect width="2" height="2" transform="matrix(4.37114e-08 -1 -1 -4.37114e-08 5 8)" fill="#1A84AE"/>
</g>
<defs>
<clipPath id="clip0_56_51432">
<rect width="24" height="24" fill="white"/>
</clipPath>
</defs>
</svg>
