<svg width="24" height="24" viewBox="0 0 24 24" fill="none" xmlns="http://www.w3.org/2000/svg">
<rect x="11" y="11" width="2" height="2" transform="rotate(90 11 11)" fill="#1A84AE"/>
<rect x="13" y="12" width="2" height="3" transform="rotate(90 13 12)" fill="#1A84AE"/>
<rect x="14" y="9" width="4" height="2" transform="rotate(90 14 9)" fill="#1A84AE"/>
<rect x="9" y="8" width="2" height="2" transform="rotate(90 9 8)" fill="#1A84AE"/>
<rect x="12" y="7" width="2" height="4" transform="rotate(90 12 7)" fill="#1A84AE"/>
<rect x="13" y="8" width="2" height="2" transform="rotate(90 13 8)" fill="#1A84AE"/>
<rect x="9" y="14" width="2" height="2" transform="rotate(90 9 14)" fill="#1A84AE"/>
<rect x="6" y="16" width="2" height="2" transform="rotate(90 6 16)" fill="#1A84AE"/>
<rect x="7" y="17" width="2" height="2" transform="rotate(90 7 17)" fill="#1A84AE"/>
<rect x="18" y="17" width="2" height="2" transform="rotate(90 18 17)" fill="#1A84AE"/>
<rect x="19" y="16" width="2" height="2" transform="rotate(90 19 16)" fill="#1A84AE"/>
<rect x="20" y="14" width="3" height="2" transform="rotate(90 20 14)" fill="#1A84AE"/>
<rect x="9" y="18" width="2" height="3" transform="rotate(90 9 18)" fill="#1A84AE"/>
<rect x="17" y="18" width="2" height="3" transform="rotate(90 17 18)" fill="#1A84AE"/>
<rect x="15" y="19" width="2" height="7" transform="rotate(90 15 19)" fill="#1A84AE"/>
<rect x="13" y="16" width="2" height="3" transform="rotate(90 13 16)" fill="#1A84AE"/>
<rect x="18" y="9" width="4" height="2" transform="rotate(90 18 9)" fill="#1A84AE"/>
<rect x="22" y="8" width="5" height="2" transform="rotate(90 22 8)" fill="#1A84AE"/>
<rect x="16" y="14" width="2" height="2" transform="rotate(90 16 14)" fill="#1A84AE"/>
<rect x="16" y="6" width="2" height="2" transform="rotate(90 16 6)" fill="#1A84AE"/>
<rect x="15" y="5" width="2" height="2" transform="rotate(90 15 5)" fill="#1A84AE"/>
<rect x="7" y="5" width="2" height="2" transform="rotate(90 7 5)" fill="#1A84AE"/>
<rect x="17" y="12" width="3" height="2" transform="rotate(90 17 12)" fill="#1A84AE"/>
<rect x="21" y="12" width="3" height="2" transform="rotate(90 21 12)" fill="#1A84AE"/>
<rect x="21" y="6" width="3" height="2" transform="rotate(90 21 6)" fill="#1A84AE"/>
<rect x="17" y="7" width="3" height="2" transform="rotate(90 17 7)" fill="#1A84AE"/>
<rect x="14" y="4" width="2" height="3" transform="rotate(90 14 4)" fill="#1A84AE"/>
<rect x="12" y="3" width="2" height="4" transform="rotate(90 12 3)" fill="#1A84AE"/>
<rect x="4" y="10" width="4" height="2" transform="rotate(90 4 10)" fill="#1A84AE"/>
<rect x="9" y="4" width="2" height="3" transform="rotate(90 9 4)" fill="#1A84AE"/>
<rect x="6" y="6" width="2" height="2" transform="rotate(90 6 6)" fill="#1A84AE"/>
<rect x="5" y="7" width="4" height="2" transform="rotate(90 5 7)" fill="#1A84AE"/>
<rect x="5" y="13" width="4" height="2" transform="rotate(90 5 13)" fill="#1A84AE"/>
<rect x="11" y="15" width="2" height="3" transform="rotate(90 11 15)" fill="#1A84AE"/>
<rect x="15" y="15" width="2" height="3" transform="rotate(90 15 15)" fill="#1A84AE"/>
<rect x="8" y="9" width="6" height="2" transform="rotate(90 8 9)" fill="#1A84AE"/>
</svg>
