<svg width="24" height="24" viewBox="0 0 24 24" fill="none" xmlns="http://www.w3.org/2000/svg">
<g clip-path="url(#clip0_56_51449)">
<rect x="4" y="14" width="2" height="3" fill="#1A84AE"/>
<rect x="3" y="17" width="2" height="3" fill="#1A84AE"/>
<rect x="2" y="20" width="2" height="2" fill="#1A84AE"/>
<rect x="4" y="22" width="3" height="2" fill="#1A84AE"/>
<rect x="6" y="21" width="3" height="2" fill="#1A84AE"/>
<rect x="8" y="20" width="2" height="2" fill="#1A84AE"/>
<rect x="9" y="19" width="2" height="2" fill="#1A84AE"/>
<rect x="10" y="18" width="2" height="2" fill="#1A84AE"/>
<rect x="11" y="17" width="2" height="2" fill="#1A84AE"/>
<rect width="2" height="3" transform="matrix(-1 0 0 1 20 14)" fill="#1A84AE"/>
<rect width="2" height="3" transform="matrix(-1 0 0 1 21 17)" fill="#1A84AE"/>
<rect width="2" height="2" transform="matrix(-1 0 0 1 22 20)" fill="#1A84AE"/>
<rect width="2" height="2" transform="matrix(-1 0 0 1 22 22)" fill="#1A84AE"/>
<rect width="2" height="2" transform="matrix(-1 0 0 1 4 22)" fill="#1A84AE"/>
<rect width="3" height="2" transform="matrix(-1 0 0 1 20 22)" fill="#1A84AE"/>
<rect width="3" height="2" transform="matrix(-1 0 0 1 18 21)" fill="#1A84AE"/>
<rect width="2" height="2" transform="matrix(-1 0 0 1 16 20)" fill="#1A84AE"/>
<rect width="2" height="2" transform="matrix(-1 0 0 1 15 19)" fill="#1A84AE"/>
<rect width="2" height="2" transform="matrix(-1 0 0 1 14 18)" fill="#1A84AE"/>
<rect x="10" width="4" height="2" fill="#1A84AE"/>
<rect x="7" y="5" width="2" height="3" fill="#1A84AE"/>
<rect x="15" y="5" width="2" height="3" fill="#1A84AE"/>
<rect x="9" y="1" width="2" height="3" fill="#1A84AE"/>
<rect x="8" y="3" width="2" height="3" fill="#1A84AE"/>
<rect x="13" y="1" width="2" height="3" fill="#1A84AE"/>
<rect x="14" y="3" width="2" height="3" fill="#1A84AE"/>
<rect y="7" width="2" height="2" fill="#1A84AE"/>
<rect x="5" y="13" width="2" height="2" fill="#1A84AE"/>
<rect x="2" y="10" width="2" height="2" fill="#1A84AE"/>
<rect x="3" y="11" width="2" height="2" fill="#1A84AE"/>
<rect y="8" width="2" height="2" fill="#1A84AE"/>
<rect x="1" y="9" width="2" height="2" fill="#1A84AE"/>
<rect x="4" y="12" width="2" height="2" fill="#1A84AE"/>
<rect x="2" y="7" width="5" height="2" fill="#1A84AE"/>
<rect width="2" height="2" transform="matrix(-1 0 0 1 24 7)" fill="#1A84AE"/>
<rect width="2" height="2" transform="matrix(-1 0 0 1 19 13)" fill="#1A84AE"/>
<rect width="2" height="2" transform="matrix(-1 0 0 1 22 10)" fill="#1A84AE"/>
<rect width="2" height="2" transform="matrix(-1 0 0 1 21 11)" fill="#1A84AE"/>
<rect width="2" height="2" transform="matrix(-1 0 0 1 24 8)" fill="#1A84AE"/>
<rect width="2" height="2" transform="matrix(-1 0 0 1 23 9)" fill="#1A84AE"/>
<rect width="2" height="2" transform="matrix(-1 0 0 1 20 12)" fill="#1A84AE"/>
<rect width="5" height="2" transform="matrix(-1 0 0 1 22 7)" fill="#1A84AE"/>
</g>
<defs>
<clipPath id="clip0_56_51449">
<rect width="24" height="24" fill="white"/>
</clipPath>
</defs>
</svg>
