<svg width="24" height="24" viewBox="0 0 24 24" fill="none" xmlns="http://www.w3.org/2000/svg">
<rect x="5" y="5" width="2" height="2" fill="#1A84AE"/>
<rect x="4" y="4" width="2" height="2" fill="#1A84AE"/>
<rect x="3" y="3" width="2" height="2" fill="#1A84AE"/>
<rect width="2" height="2" transform="matrix(1 0 0 -1 5 19)" fill="#1A84AE"/>
<rect width="2" height="2" transform="matrix(1 0 0 -1 4 20)" fill="#1A84AE"/>
<rect width="2" height="2" transform="matrix(1 0 0 -1 3 21)" fill="#1A84AE"/>
<rect x="15" y="8" width="2" height="2" fill="#1A84AE"/>
<rect x="17" y="5" width="2" height="2" fill="#1A84AE"/>
<rect x="18" y="4" width="2" height="2" fill="#1A84AE"/>
<rect x="19" y="3" width="2" height="2" fill="#1A84AE"/>
<rect width="2" height="2" transform="matrix(1 0 0 -1 17 19)" fill="#1A84AE"/>
<rect width="2" height="2" transform="matrix(1 0 0 -1 18 20)" fill="#1A84AE"/>
<rect width="2" height="2" transform="matrix(1 0 0 -1 19 21)" fill="#1A84AE"/>
<rect width="2" height="4" transform="matrix(1 0 0 -1 11 23)" fill="#1A84AE"/>
<rect width="2" height="4" transform="matrix(-4.37114e-08 1 1 4.37114e-08 1 11)" fill="#1A84AE"/>
<rect width="2" height="4" transform="matrix(1 0 0 -1 11 5)" fill="#1A84AE"/>
<rect width="2" height="4" transform="matrix(-4.37114e-08 1 1 4.37114e-08 19 11)" fill="#1A84AE"/>
<rect x="10" y="6" width="4" height="2" fill="#1A84AE"/>
<rect width="4" height="2" transform="matrix(1 0 0 -1 10 18)" fill="#1A84AE"/>
<rect x="7" y="8" width="2" height="2" fill="#1A84AE"/>
<rect x="8" y="7" width="2" height="2" fill="#1A84AE"/>
<rect width="2" height="2" transform="matrix(1 0 0 -1 8 17)" fill="#1A84AE"/>
<rect width="2" height="2" transform="matrix(1 0 0 -1 7 16)" fill="#1A84AE"/>
<rect width="2" height="4" transform="matrix(1 0 0 -1 6 14)" fill="#1A84AE"/>
<rect x="14" y="7" width="2" height="2" fill="#1A84AE"/>
<rect width="2" height="2" transform="matrix(1 0 0 -1 14 17)" fill="#1A84AE"/>
<rect width="2" height="2" transform="matrix(1 0 0 -1 15 16)" fill="#1A84AE"/>
<rect width="2" height="4" transform="matrix(1 0 0 -1 16 14)" fill="#1A84AE"/>
</svg>
