<svg width="24" height="24" viewBox="0 0 24 24" fill="none" xmlns="http://www.w3.org/2000/svg">
<rect x="21" y="21" width="2" height="2" fill="#1A84AE"/>
<rect x="20" y="20" width="2" height="2" fill="#1A84AE"/>
<rect x="19" y="19" width="2" height="2" fill="#1A84AE"/>
<rect x="18" y="18" width="2" height="2" fill="#1A84AE"/>
<rect x="17" y="17" width="2" height="2" fill="#1A84AE"/>
<rect x="16" y="16" width="2" height="2" fill="#1A84AE"/>
<rect x="15" y="15" width="2" height="2" fill="#1A84AE"/>
<rect x="14" y="14" width="2" height="2" fill="#1A84AE"/>
<rect x="12" y="12" width="2" height="2" fill="#1A84AE"/>
<rect x="10" y="10" width="2" height="2" fill="#1A84AE"/>
<rect x="8" y="8" width="2" height="2" fill="#1A84AE"/>
<rect x="6" y="6" width="2" height="2" fill="#1A84AE"/>
<rect x="4" y="4" width="2" height="2" fill="#1A84AE"/>
<rect x="2" y="2" width="2" height="2" fill="#1A84AE"/>
<rect x="13" y="13" width="2" height="2" fill="#1A84AE"/>
<rect x="11" y="11" width="2" height="2" fill="#1A84AE"/>
<rect x="7" y="7" width="2" height="2" fill="#1A84AE"/>
<rect x="9" y="9" width="2" height="2" fill="#1A84AE"/>
<rect x="5" y="5" width="2" height="2" fill="#1A84AE"/>
<rect x="3" y="3" width="2" height="2" fill="#1A84AE"/>
<rect x="1" y="1" width="2" height="2" fill="#1A84AE"/>
<rect x="10" y="15" width="6" height="2" fill="#1A84AE"/>
<rect x="9" y="16" width="2" height="2" fill="#1A84AE"/>
<rect x="8" y="17" width="2" height="2" fill="#1A84AE"/>
<rect x="15" y="16" width="2" height="2" fill="#1A84AE"/>
<rect x="16" y="17" width="2" height="2" fill="#1A84AE"/>
<rect x="12" y="20" width="2" height="2" fill="#1A84AE"/>
<rect x="10" y="10" width="6" height="2" fill="#1A84AE"/>
<rect x="8" y="11" width="3" height="2" fill="#1A84AE"/>
<rect x="15" y="11" width="3" height="2" fill="#1A84AE"/>
<rect x="7" y="12" width="2" height="2" fill="#1A84AE"/>
<rect x="17" y="12" width="2" height="2" fill="#1A84AE"/>
<rect x="6" y="13" width="2" height="2" fill="#1A84AE"/>
<rect x="5" y="14" width="2" height="2" fill="#1A84AE"/>
<rect x="18" y="13" width="2" height="2" fill="#1A84AE"/>
<rect x="19" y="14" width="2" height="2" fill="#1A84AE"/>
<rect x="9" y="5" width="8" height="2" fill="#1A84AE"/>
<rect x="7" y="6" width="3" height="2" fill="#1A84AE"/>
<rect x="16" y="6" width="3" height="2" fill="#1A84AE"/>
<rect x="5" y="7" width="2" height="2" fill="#1A84AE"/>
<rect x="19" y="7" width="2" height="2" fill="#1A84AE"/>
<rect x="4" y="8" width="2" height="2" fill="#1A84AE"/>
<rect x="20" y="8" width="2" height="2" fill="#1A84AE"/>
<rect x="3" y="9" width="2" height="2" fill="#1A84AE"/>
<rect x="2" y="10" width="2" height="2" fill="#1A84AE"/>
<rect x="21" y="9" width="2" height="2" fill="#1A84AE"/>
<rect x="22" y="10" width="2" height="2" fill="#1A84AE"/>
</svg>
