<svg width="24" height="24" viewBox="0 0 24 24" fill="none" xmlns="http://www.w3.org/2000/svg">
<g clip-path="url(#clip0_56_51510)">
<rect x="9" y="9" width="6" height="2" fill="#1A84AE"/>
<rect x="8" y="10" width="2" height="2" fill="#1A84AE"/>
<rect x="14" y="10" width="2" height="2" fill="#1A84AE"/>
<rect x="9" y="4" width="6" height="2" fill="#1A84AE"/>
<rect x="7" y="5" width="3" height="2" fill="#1A84AE"/>
<rect x="14" y="5" width="3" height="2" fill="#1A84AE"/>
<rect x="6" y="6" width="2" height="2" fill="#1A84AE"/>
<rect x="16" y="6" width="2" height="2" fill="#1A84AE"/>
<rect x="5" y="7" width="2" height="2" fill="#1A84AE"/>
<rect x="17" y="7" width="2" height="2" fill="#1A84AE"/>
<rect x="8" width="8" height="2" fill="#1A84AE"/>
<rect x="6" y="1" width="3" height="2" fill="#1A84AE"/>
<rect x="15" y="1" width="3" height="2" fill="#1A84AE"/>
<rect x="4" y="2" width="2" height="2" fill="#1A84AE"/>
<rect x="18" y="2" width="2" height="2" fill="#1A84AE"/>
<rect x="3" y="3" width="2" height="2" fill="#1A84AE"/>
<rect x="19" y="3" width="2" height="2" fill="#1A84AE"/>
<rect x="2" y="4" width="2" height="2" fill="#1A84AE"/>
<rect x="20" y="4" width="2" height="2" fill="#1A84AE"/>
<rect x="1" y="14" width="22" height="2" fill="#1A84AE"/>
<rect y="15" width="2" height="8" fill="#1A84AE"/>
<rect x="3" y="10" width="2" height="6" fill="#1A84AE"/>
<rect x="3" y="19" width="2" height="2" fill="#1A84AE"/>
<rect x="6" y="19" width="2" height="2" fill="#1A84AE"/>
<rect x="9" y="19" width="2" height="2" fill="#1A84AE"/>
<rect x="22" y="15" width="2" height="8" fill="#1A84AE"/>
<rect x="1" y="22" width="22" height="2" fill="#1A84AE"/>
</g>
<defs>
<clipPath id="clip0_56_51510">
<rect width="24" height="24" fill="white"/>
</clipPath>
</defs>
</svg>
