<svg width="116" height="116" viewBox="0 0 116 116" fill="none" xmlns="http://www.w3.org/2000/svg">
<path d="M111.167 19.3333V14.5H106.333V9.66667H96.6667V14.5H91.8333V19.3333H87V33.8333H77.3333V38.6667H67.6667V33.8333H58V9.66667H53.1667V4.83333H48.3333V0H38.6667V4.83333H33.8333V9.66667H29V58H24.1667V53.1667H4.83333V58H0V77.3333H4.83333V87H9.66667V91.8333H14.5V96.6667H19.3333V101.5H24.1667V106.333H29V111.167H38.6667V116H101.5V111.167H106.333V101.5H111.167V91.8333H116V19.3333H111.167ZM77.3333 43.5H87V67.6667H77.3333V43.5ZM67.6667 43.5V67.6667H58V43.5H67.6667ZM106.333 87H101.5V96.6667H96.6667V106.333H43.5V101.5H33.8333V96.6667H29V91.8333H24.1667V87H19.3333V82.1667H14.5V72.5H9.66667V62.8333H19.3333V67.6667H24.1667V72.5H33.8333V67.6667H38.6667V14.5H48.3333V72.5H53.1667V77.3333H67.6667V72.5H77.3333V77.3333H91.8333V72.5H96.6667V24.1667H106.333V87Z" fill="#4F4F4F"/>
</svg>
