<svg width="95" height="107" viewBox="0 0 95 107" fill="none" xmlns="http://www.w3.org/2000/svg">
<g clip-path="url(#clip0_162_5702)">
<path d="M36.6577 67.9038V64.3029H33.0436V60.7019H29.4294V57.101H22.2012V64.3029H25.8153V67.9038H29.4294V71.5048H33.0436V75.1058H43.886V67.9038H36.6577Z" fill="#FFE36C"/>
<path d="M61.9566 71.5048H65.5708V67.9038H69.1849V64.3029H72.799V57.101H65.5708V60.7019H61.9566V64.3029H58.3425V67.9038H51.1143V75.1058H61.9566V71.5048Z" fill="#FFE36C"/>
<path d="M51.1142 46.2981H43.886V42.6971H36.6577V49.8991H43.886V53.5H51.1142V49.8991H58.3425V42.6971H51.1142V46.2981Z" fill="#FFE36C"/>
<path d="M7.7445 21.0913H11.3586V24.6923H18.5869V17.4904H14.9728V13.8894H11.3586V10.2885H4.13037V17.4904H7.7445V21.0913Z" fill="#FFE36C"/>
<path d="M83.6413 10.2885V13.8894H80.0272V17.4904H76.4131V24.6923H83.6413V21.0913H87.2555V17.4904H90.8696V10.2885H83.6413Z" fill="#FFE36C"/>
<path d="M83.6413 28.2932H76.4131V35.4951H83.6413H87.2555H90.8696V28.2932H87.2555H83.6413Z" fill="#FFE36C"/>
<path d="M11.3586 35.4951H18.5869V28.2932H11.3586H7.7445H4.13037V35.4951H7.7445H11.3586Z" fill="#FFE36C"/>
<path d="M43.886 31.8942H36.6577V39.0961H43.886V31.8942Z" fill="#FFE36C"/>
<path d="M58.3425 31.8942H51.1143V39.0961H58.3425V31.8942Z" fill="#FFE36C"/>
<path d="M87.2554 46.2981H83.6412V42.6971H80.0271V39.0961H72.7988V24.6923H69.1847V17.4904H65.5706V13.8894H58.3423V10.2885H36.6575V13.8894H29.4293V17.4904H25.8152V24.6923H22.201V39.0961H14.9728V42.6971H11.3586V46.2981H7.7445V53.5H4.13037V64.3029H7.7445V71.5048H11.3586V75.1058H14.9728V78.7067H18.5869V82.3077H7.7445V85.9086H4.13037V93.1106H11.3586V89.5096H18.5869V93.1106H22.201V96.7115H43.8858V93.1106H51.1141V96.7115H69.1847V93.1106H76.413V89.5096H83.6412V93.1106H90.8695V85.9086H87.2554V82.3077H76.413V78.7067H80.0271V75.1058H83.6412V71.5048H87.2554V64.3029H90.8695V53.5H87.2554V46.2981ZM83.6412 64.3029H80.0271V67.9038H76.413V71.5048H72.7988V75.1058H69.1847V89.5096H51.1141V75.1058H43.8858V89.5096H25.8152V75.1058H22.201V71.5048H18.5869V67.9038H14.9728V64.3029H11.3586V53.5H14.9728V49.899H18.5869V46.2981H25.8152V49.899H33.0434V42.6971H29.4293V28.2933H33.0434V21.0913H40.2717V17.4904H54.7282V21.0913H61.9565V28.2933H65.5706V42.6971H61.9565V49.899H69.1847V46.2981H76.413V49.899H80.0271V53.5H83.6412V64.3029Z" fill="#FFE36C"/>
</g>
<defs>
<clipPath id="clip0_162_5702">
<rect width="86.7391" height="86.4231" fill="white" transform="translate(4.13037 10.2885)"/>
</clipPath>
</defs>
</svg>
