<svg width="78" height="104" viewBox="0 0 78 104" fill="none" xmlns="http://www.w3.org/2000/svg">
<path d="M69.333 17.333H65V26H60.667V34.667H56.333V39H69.333V43.333H78V52H73.667V56.333H69.333V60.667H65V65H60.667V69.333H56.333V73.667H52V78H47.667V82.333H43.333V86.667H39V91H34.667V95.333H30.333V99.667H21.667V104H8.66699V86.667H13V78H17.333V69.333H21.667V65H8.66699V60.667H0V47.667H4.33301V39H8.66699V30.333H13V21.667H17.333V13H21.667V4.33301H26V0H69.333V17.333ZM30.333 13H26V21.667H21.667V30.333H17.333V39H13V47.667H8.66699V52H13V56.333H34.667V65H30.333V69.333H26V78H21.667V86.667H17.333V95.333H21.667V91H26V86.667H30.333V82.333H34.667V78H39V73.667H43.333V69.333H47.667V65H52V60.667H56.333V56.333H60.667V52H65V47.667H43.333V39H47.667V34.667H52V26H56.333V17.333H60.667V8.66699H30.333V13Z" fill="#FFE36C"/>
</svg>
