<svg width="102" height="102" viewBox="0 0 102 102" fill="none" xmlns="http://www.w3.org/2000/svg">
<g clip-path="url(#clip0_164_5899)">
<path d="M68 68H59.5V72.25H42.5V68H34V63.75H25.5V72.25H34V76.5H42.5V80.75H59.5V76.5H68V72.25H76.5V63.75H68V68Z" fill="#FFE36C"/>
<path d="M34 42.5H25.5V51H34V42.5Z" fill="#FFE36C"/>
<path d="M76.5 42.5H68V51H76.5V42.5Z" fill="#FFE36C"/>
<path d="M97.75 38.25V25.5H93.5V17H89.25V12.75H85V8.5H76.5V4.25H68V0H34V4.25H25.5V8.5H17V12.75H12.75V17H8.5V25.5H4.25V38.25H0V89.25H8.5V80.75H12.75V97.75H21.25V93.5H25.5V102H76.5V93.5H80.75V97.75H89.25V80.75H93.5V89.25H102V38.25H97.75ZM85 72.25V76.5H80.75V80.75H76.5V85H72.25V89.25H63.75V93.5H38.25V89.25H29.75V85H25.5V80.75H21.25V76.5H17V72.25H12.75V63.75H8.5V42.5H12.75V59.5H21.25V38.25H25.5V34H42.5V25.5H59.5V34H76.5V38.25H80.75V59.5H89.25V42.5H93.5V63.75H89.25V72.25H85Z" fill="#FFE36C"/>
<path d="M42.5 63.75H59.5V55.25H46.75V51H51V38.25H42.5V51H38.25V59.5H42.5V63.75Z" fill="#FFE36C"/>
</g>
<defs>
<clipPath id="clip0_164_5899">
<rect width="102" height="102" fill="white"/>
</clipPath>
</defs>
</svg>
