<svg width="127" height="104" viewBox="0 0 127 104" fill="none" xmlns="http://www.w3.org/2000/svg">
<g clip-path="url(#clip0_165_8780)">
<path d="M40.409 46.222H34.6363V28.8887H23.0908V51.9998H28.8635V57.7776H34.6363V63.5553H46.1817V51.9998H40.409V46.222Z" fill="#991D71"/>
<path d="M86.5908 34.6668H92.3636V52.0002H103.909V28.8891H98.1363V23.1113H92.3636V17.3335H80.8181V28.8891H86.5908V34.6668Z" fill="#991D71"/>
<path d="M11.5455 17.3334H5.77273V28.889H0V52.0001H5.77273V63.5557H11.5455V69.3334H17.3182V75.1112H28.8636V63.5557H23.0909V57.7779H17.3182V46.2223H11.5455V34.6668H17.3182V23.1112H23.0909V11.5557H11.5455V17.3334Z" fill="#991D71"/>
<path d="M115.455 63.5556H121.227V52.0001H127V28.8889H121.227V17.3334H115.455V11.5556H109.682V5.77783H98.1365V17.3334H103.909V23.1112H109.682V34.6667H115.455V46.2223H109.682V57.7778H103.909V69.3334H115.455V63.5556Z" fill="#991D71"/>
<path d="M98.1363 69.3333V63.5556H92.3635V57.7778H86.5908V52H80.8181V46.2222V34.6667H75.0454V28.8889H69.2726V23.1111H57.7272H51.9545V17.3333H46.1817V11.5556H40.409V5.77778H34.6363V0H23.0908V11.5556H28.8635V17.3333H34.6363V23.1111H40.409V28.8889H46.1817V34.6667V46.2222H51.9545V52H57.7272V92.4444H69.2726V57.7778H75.0454V63.5556H80.8181V69.3333H86.5908V75.1111H92.3635V80.8889H98.1363V86.6667H103.909V92.4444H109.682V98.2222H115.454V104H127V92.4444H121.227V86.6667H115.454V80.8889H109.682V75.1111H103.909V69.3333H98.1363Z" fill="#991D71"/>
</g>
<defs>
<clipPath id="clip0_165_8780">
<rect width="127" height="104" fill="white"/>
</clipPath>
</defs>
</svg>
