<svg width="126" height="98" viewBox="0 0 126 98" fill="none" xmlns="http://www.w3.org/2000/svg">
<g clip-path="url(#clip0_162_2568)">
<path d="M74.3805 57.0943H51.4941V68.5131H74.3805V57.0943Z" fill="#1A84AE"/>
<path d="M85.8239 68.5131V62.8037H80.1023V57.0943H45.7728V62.8037H40.0512V68.5131H34.3296V79.932H45.7728V74.2225H51.4944V68.5131H74.3807V74.2225H80.1023V79.932H91.5455V68.5131H85.8239Z" fill="#FFE36C"/>
<path d="M68.659 85.6414H57.2158V97.0602H68.659V85.6414Z" fill="#FFE36C"/>
<path d="M102.988 51.3849V45.6754H97.2668V39.966H91.5452V34.2566H80.1021V28.5471H45.7725V34.2566H34.3293V39.966H28.6077V45.6754H22.8861V51.3849H17.1646V62.8037H28.6077V57.0943H34.3293V51.3849H40.0509V45.6754H51.4941V39.966H74.3805V45.6754H85.8236V51.3849H91.5452V57.0943H97.2668V62.8037H108.71V51.3849H102.988Z" fill="white"/>
<path d="M120.153 28.5471V22.8377H114.432V17.1283H108.71V11.4189H97.267V5.70943H85.8239V0H40.0511V5.70943H28.608V11.4189H17.1648V17.1283H11.4432V22.8377H5.72159V28.5471H0V39.966H11.4432V34.2566H17.1648V28.5471H22.8864V22.8377H28.608V17.1283H45.7727V11.4189H80.1023V17.1283H97.267V22.8377H102.989V28.5471H108.71V34.2566H114.432V39.966H125.875V28.5471H120.153Z" fill="white"/>
</g>
<defs>
<clipPath id="clip0_162_2568">
<rect width="125.875" height="97.0602" fill="white"/>
</clipPath>
</defs>
</svg>
