<svg width="92" height="104" viewBox="0 0 92 104" fill="none" xmlns="http://www.w3.org/2000/svg">
<g clip-path="url(#clip0_162_5008)">
<path d="M92 34.6667H86.25V23.1111H80.5V17.3333H74.75V11.5556H69V5.77778H57.5V0H34.5V5.77778H23V11.5556H17.25V17.3333H11.5V23.1111H5.75V34.6667H0V63.5556H5.75V69.3333H11.5V75.1111H17.25V80.8889H23V86.6667H28.75V92.4444H34.5V98.2222H40.25V104H51.75V98.2222H57.5V92.4444H63.25V86.6667H69V80.8889H74.75V75.1111H80.5V69.3333H86.25V63.5556H92V34.6667ZM17.25 34.6667V28.8889H23V23.1111H28.75V17.3333H40.25V11.5556H51.75V17.3333H63.25V23.1111H69V28.8889H74.75V34.6667H80.5V57.7778H74.75V63.5556H69V69.3333H63.25V75.1111H57.5V80.8889H51.75V86.6667H40.25V80.8889H34.5V75.1111H28.75V69.3333H23V63.5556H17.25V57.7778H11.5V34.6667H17.25Z" fill="#4F4F4F"/>
<path d="M34.5 57.7778H40.25V63.5556H51.75V57.7778H57.5V52H63.25V40.4445H57.5V34.6667H51.75V28.8889H40.25V34.6667H34.5V40.4445H28.75V52H34.5V57.7778Z" fill="#4F4F4F"/>
</g>
<defs>
<clipPath id="clip0_162_5008">
<rect width="92" height="104" fill="white"/>
</clipPath>
</defs>
</svg>
