<svg width="105" height="114" viewBox="0 0 105 114" fill="none" xmlns="http://www.w3.org/2000/svg">
<g clip-path="url(#clip0_162_3526)">
<path d="M85.9091 42.75H71.5909V38H57.2727V33.25H47.7272V38H33.4091V42.75H19.0909V47.5H4.77271V99.75H9.54543V104.5H19.0909V109.25H33.4091V114H71.5909V109.25H85.9091V104.5H95.4545V99.75H100.227V47.5H85.9091V42.75ZM47.7272 104.5H33.4091V99.75H19.0909V95H14.3182V61.75H19.0909V66.5H33.4091V71.25H47.7272V104.5ZM90.6818 95H85.9091V99.75H71.5909V104.5H57.2727V71.25H71.5909V66.5H85.9091V61.75H90.6818V95ZM85.9091 57H71.5909V61.75H57.2727V66.5H47.7272V61.75H33.4091V57H19.0909V52.25H33.4091V47.5H47.7272V42.75H57.2727V47.5H71.5909V52.25H85.9091V57Z" fill="#991D71"/>
<path d="M28.6364 28.5H38.1818V14.25H33.4091V4.75H23.8636V19H28.6364V28.5Z" fill="#991D71"/>
<path d="M76.3636 19H81.1364V4.75H71.5909V14.25H66.8182V28.5H76.3636V19Z" fill="#991D71"/>
<path d="M105 14.25H95.4545V19H90.6818V23.75H85.9091V28.5H81.1364V38H90.6818V33.25H95.4545V28.5H100.227V23.75H105V14.25Z" fill="#991D71"/>
<path d="M4.77273 28.5H9.54545V33.25H14.3182V38H23.8636V28.5H19.0909V23.75H14.3182V19H9.54545V14.25H0V23.75H4.77273V28.5Z" fill="#991D71"/>
<path d="M57.2727 0H47.7273V23.75H57.2727V0Z" fill="#991D71"/>
</g>
<defs>
<clipPath id="clip0_162_3526">
<rect width="105" height="114" fill="white"/>
</clipPath>
</defs>
</svg>
