<svg width="101" height="101" viewBox="0 0 101 101" fill="none" xmlns="http://www.w3.org/2000/svg">
<path d="M96.7917 29.4583V21.0417H92.5833V16.8333H88.375V12.625H84.1667V8.41667H79.9583V4.20833H71.5417V0H29.4583V4.20833H21.0417V8.41667H16.8333V12.625H12.625V16.8333H8.41667V21.0417H4.20833V29.4583H0V71.5417H4.20833V79.9583H8.41667V84.1667H12.625V88.375H16.8333V92.5833H21.0417V96.7917H29.4583V101H71.5417V96.7917H79.9583V92.5833H84.1667V88.375H88.375V84.1667H92.5833V79.9583H96.7917V71.5417H101V29.4583H96.7917ZM58.9167 8.41667V16.8333H63.125V29.4583H67.3333V42.0833H71.5417V46.2917H54.7083V8.41667H58.9167ZM46.2917 8.41667V46.2917H29.4583V42.0833H33.6667V29.4583H37.875V16.8333H42.0833V8.41667H46.2917ZM8.41667 33.6667H12.625V25.25H16.8333V21.0417H21.0417V16.8333H25.25V12.625H33.6667V16.8333H29.4583V25.25H25.25V37.875H21.0417V46.2917H8.41667V33.6667ZM21.0417 54.7083V63.125H25.25V75.75H29.4583V84.1667H33.6667V88.375H25.25V84.1667H21.0417V79.9583H16.8333V75.75H12.625V67.3333H8.41667V54.7083H21.0417ZM42.0833 92.5833V84.1667H37.875V71.5417H33.6667V58.9167H29.4583V54.7083H46.2917V92.5833H42.0833ZM54.7083 92.5833V54.7083H71.5417V58.9167H67.3333V71.5417H63.125V84.1667H58.9167V92.5833H54.7083ZM92.5833 67.3333H88.375V75.75H84.1667V79.9583H79.9583V84.1667H75.75V88.375H67.3333V84.1667H71.5417V75.75H75.75V63.125H79.9583V54.7083H92.5833V67.3333ZM79.9583 46.2917V37.875H75.75V25.25H71.5417V16.8333H67.3333V12.625H75.75V16.8333H79.9583V21.0417H84.1667V25.25H88.375V33.6667H92.5833V46.2917H79.9583Z" fill="white"/>
</svg>
