<svg width="103" height="103" viewBox="0 0 103 103" fill="none" xmlns="http://www.w3.org/2000/svg">
<g clip-path="url(#clip0_164_8024)">
<path d="M103 8.58333H98.7083V4.29167H94.4167V0H8.58333V4.29167H4.29167V8.58333H0V64.375H4.29167V68.6667H8.58333V72.9583H34.3333V81.5417H12.875V103H90.125V81.5417H68.6667V72.9583H94.4167V68.6667H98.7083V64.375H103V8.58333ZM81.5417 94.4167H21.4583V90.125H81.5417V94.4167ZM60.0833 81.5417H42.9167V72.9583H60.0833V81.5417ZM12.875 64.375V60.0833H8.58333V12.875H12.875V8.58333H90.125V12.875H94.4167V60.0833H90.125V64.375H12.875Z" fill="white"/>
<path d="M64.375 38.6251V34.3334H60.0833V30.0417H55.7917V25.7501H51.5V21.4584H47.2083V17.1667H38.625V25.7501V30.0417V34.3334V38.6251V42.9167V47.2084V51.5001V55.7917H42.9167V51.5001H47.2083V47.2084H51.5V51.5001H55.7917V55.7917H64.375V47.2084H60.0833V42.9167H64.375H68.6667V38.6251H64.375Z" fill="white"/>
</g>
<defs>
<clipPath id="clip0_164_8024">
<rect width="103" height="103" fill="white"/>
</clipPath>
</defs>
</svg>
