<svg width="116" height="90" viewBox="0 0 116 90" fill="none" xmlns="http://www.w3.org/2000/svg">
<g clip-path="url(#clip0_165_8767)">
<path d="M73.8182 30H68.5455V24H63.2727V18H52.7273V24H47.4546V30H42.1818V42H47.4546V48H52.7273V90H63.2727V48H68.5455V42H73.8182V30Z" fill="#FFE36C"/>
<path d="M36.9091 42H31.6363V30H36.9091V24H42.1818V12H31.6363V18H26.3636V24H21.0909V48H26.3636V54H31.6363V60H42.1818V48H36.9091V42Z" fill="#FFE36C"/>
<path d="M89.6364 54V48H94.9091V24H89.6364V18H84.3636V12H73.8182V24H79.0909V30H84.3636V42H79.0909V48H73.8182V60H84.3636V54H89.6364Z" fill="#FFE36C"/>
<path d="M21.0909 54H15.8182V42H10.5455V30H15.8182V18H21.0909V12H26.3636V0H15.8182V6H10.5455V12H5.27273V24H0V48H5.27273V60H10.5455V66H15.8182V72H26.3636V60H21.0909V54Z" fill="#FFE36C"/>
<path d="M116 24H110.727V12H105.455V6H100.182V0H89.6364V12H94.9091V18H100.182V30H105.455V42H100.182V54H94.9091V60H89.6364V72H100.182V66H105.455V60H110.727V48H116V24Z" fill="#FFE36C"/>
</g>
<defs>
<clipPath id="clip0_165_8767">
<rect width="116" height="90" fill="white"/>
</clipPath>
</defs>
</svg>
