<svg width="58" height="87" viewBox="0 0 58 87" fill="none" xmlns="http://www.w3.org/2000/svg">
<g clip-path="url(#clip0_287_941)">
<path d="M34.2591 50.9483C34.2587 53.1124 33.6185 55.2277 32.4198 57.0269C31.221 58.826 29.5174 60.228 27.5244 61.0557C25.5314 61.8835 23.3385 62.0997 21.223 61.677C19.1076 61.2543 17.1645 60.2117 15.6396 58.6811C14.1148 57.1505 13.0765 55.2007 12.6562 53.078C12.2358 50.9554 12.4523 48.7554 13.2782 46.7562C14.1041 44.7571 15.5024 43.0485 17.2961 41.8466C19.0899 40.6447 21.1986 40.0034 23.3556 40.0039C24.7879 40.0039 26.2061 40.287 27.5293 40.8371C28.8525 41.3872 30.0548 42.1934 31.0673 43.2097C32.0799 44.2261 32.8829 45.4326 33.4306 46.7604C33.9782 48.0882 34.2598 49.5113 34.2591 50.9483Z" fill="#FC794D"/>
<path d="M28.8061 50.9482C28.8061 52.0303 28.4863 53.0881 27.8871 53.9877C27.2879 54.8874 26.4363 55.5887 25.4399 56.0027C24.4435 56.4168 23.3471 56.5252 22.2893 56.3141C21.2315 56.103 20.2599 55.5819 19.4973 54.8168C18.7346 54.0517 18.2153 53.0768 18.0049 52.0156C17.7945 50.9543 17.9025 49.8543 18.3152 48.8546C18.7279 47.8549 19.4268 47.0005 20.3236 46.3993C21.2203 45.7982 22.2746 45.4773 23.3531 45.4773C24.7993 45.4773 26.1863 46.0537 27.209 47.0797C28.2316 48.1057 28.8061 49.4973 28.8061 50.9482Z" fill="#FEE01A"/>
<path d="M58 40.2219H36.4028V61.8902H58V40.2219Z" fill="#FEE01A"/>
<path d="M47.2002 51.4141L40.7618 40.2219H53.641L47.2002 51.4141Z" fill="#26BFB8"/>
<path d="M8.83892 51.3149L14.9242 61.8901H2.75367L8.83892 51.3149Z" fill="white"/>
<path d="M8.83892 40.1698H0.276604V61.8901H8.83892V40.1698Z" fill="#A8D543"/>
<path d="M2.75367 61.8901H8.83892V51.3149L2.75367 61.8901Z" fill="#206337"/>
<path d="M8.83892 51.3149V61.8901H14.9242L8.83892 51.3149Z" fill="#26BFB8"/>
<path d="M28.4629 65.2798H19.9005V87.0001H28.4629V65.2798Z" fill="#26BFB8"/>
<path d="M42.1201 65.3441L54.5795 87H29.6582L42.1201 65.3441Z" fill="#A8D543"/>
<path d="M42.1225 75.8079L48.561 87H35.6792L42.1225 75.8079Z" fill="#EB3B81"/>
<path d="M18.5521 81.5564C18.5511 82.6269 18.2338 83.6732 17.6403 84.5629C17.0467 85.4525 16.2036 86.1457 15.2175 86.5547C14.2314 86.9637 13.1465 87.0702 12.1001 86.8607C11.0537 86.6513 10.0926 86.1353 9.33844 85.3779C8.58427 84.6206 8.07082 83.6559 7.863 82.6058C7.65519 81.5557 7.76234 80.4674 8.17091 79.4784C8.57948 78.4895 9.27113 77.6442 10.1584 77.0495C11.0457 76.4548 12.0888 76.1375 13.1559 76.1375C13.8649 76.1375 14.567 76.2776 15.2221 76.55C15.8771 76.8224 16.4722 77.2217 16.9733 77.7249C17.4745 78.2282 17.8719 78.8256 18.1428 79.483C18.4136 80.1404 18.5527 80.845 18.5521 81.5564Z" fill="white"/>
<path d="M13.1905 65.2798H0.276604V87.0001H13.1905V65.2798Z" fill="#EB3B81"/>
<path d="M18.5521 70.7085C18.5516 71.7792 18.2347 72.8257 17.6415 73.7157C17.0482 74.6057 16.2053 75.2992 15.2192 75.7086C14.2331 76.118 13.1482 76.2249 12.1016 76.0157C11.055 75.8065 10.0937 75.2907 9.33932 74.5334C8.58489 73.7762 8.0712 72.8115 7.86318 71.7614C7.65517 70.7112 7.76218 69.6228 8.17067 68.6337C8.57917 67.6445 9.27082 66.7991 10.1582 66.2044C11.0455 65.6096 12.0887 65.2921 13.1559 65.2921C13.8647 65.2921 14.5666 65.4322 15.2215 65.7045C15.8764 65.9767 16.4713 66.3757 16.9725 66.8787C17.4736 67.3817 17.871 67.9788 18.142 68.636C18.4131 69.2931 18.5524 69.9974 18.5521 70.7085Z" fill="#FEE01A"/>
<path d="M13.1905 76.1399H13.1559C11.7241 76.1399 10.3509 76.7106 9.33845 77.7263C8.326 78.7421 7.75721 80.1198 7.75721 81.5563C7.75721 82.9929 8.326 84.3706 9.33845 85.3863C10.3509 86.4021 11.7241 86.9728 13.1559 86.9728H13.1905V76.1399Z" fill="#26BFB8"/>
<path d="M13.1905 76.1399V86.9703C14.6216 86.9703 15.9942 86.3999 17.0062 85.3846C18.0181 84.3693 18.5867 82.9922 18.5867 81.5563C18.5867 80.1205 18.0181 78.7434 17.0062 77.7281C15.9942 76.7128 14.6216 76.1424 13.1905 76.1424V76.1399Z" fill="#991D79"/>
<path d="M3.90453 12.1611C2.49436 12.1611 0.987864 11.72 0.172876 11.0585L0.140771 11.0312L1.21013 8.62776C1.97999 9.06659 2.82685 9.35262 3.70449 9.47021H3.72672C4.46762 9.47021 4.9492 9.08367 4.9492 8.50883C4.9492 7.93398 4.30956 7.70355 3.42542 7.35418C1.97573 6.78677 0 6.00626 0 3.66971C0 1.45209 1.63492 0.0174561 4.16879 0.0174561C5.51734 0.0668227 6.82597 0.489605 7.94984 1.239H7.96713L6.89529 3.64741C6.00375 3.15185 5.006 2.78762 4.36883 2.73311H4.34413C3.63287 2.73311 3.15623 3.10478 3.15623 3.6598C3.15623 4.21482 3.79834 4.4626 4.68495 4.80949C6.14452 5.37691 8.14247 6.15493 8.14247 8.52617C8.14988 10.7017 6.43841 12.1611 3.90453 12.1611Z" fill="white"/>
<path d="M14.8822 12.1411C11.3135 12.1411 8.91795 9.70796 8.91795 6.08792C8.91795 2.39106 11.2592 0 14.8822 0C18.5052 0 20.8464 2.39106 20.8464 6.0904C20.8464 9.71044 18.4484 12.1411 14.8822 12.1411ZM14.8822 2.98821C13.267 2.98821 12.1804 4.2271 12.1804 6.08792C12.1804 7.94873 13.267 9.18763 14.8822 9.18763C16.4973 9.18763 17.584 7.94873 17.584 6.08792C17.584 4.2271 16.4973 2.99069 14.8822 2.99069V2.98821Z" fill="white"/>
<path d="M22.1257 11.8934V0.282471H25.1905V9.29418H29.0975V11.8934H22.1257Z" fill="white"/>
<path d="M30.4114 11.8934C30.4026 11.8831 30.3943 11.8724 30.3867 11.8612V0.282471H38.3514V2.88415H33.4738V4.86637H37.2252V7.21531H33.4738V9.29418H38.5465V11.8934H30.4114Z" fill="white"/>
<path d="M40.4481 25.7541C40.4486 27.9183 39.8094 30.0341 38.6113 31.8338C37.4132 33.6335 35.7101 35.0363 33.7174 35.8649C31.7246 36.6934 29.5317 36.9105 27.4159 36.4886C25.3002 36.0666 23.3567 35.0247 21.8312 33.4946C20.3058 31.9644 19.2668 30.0148 18.8458 27.8922C18.4248 25.7696 18.6406 23.5694 19.466 21.5699C20.2914 19.5704 21.6892 17.8613 23.4828 16.6589C25.2763 15.4565 27.385 14.8147 29.5421 14.8147C32.4341 14.8147 35.2077 15.9672 37.2529 18.0186C39.2981 20.0701 40.4475 22.8526 40.4481 25.7541Z" fill="#26BFB8"/>
<path d="M34.9951 25.7541C34.9956 26.8363 34.6762 27.8943 34.0773 28.7943C33.4784 29.6943 32.6269 30.3959 31.6306 30.8104C30.6342 31.2248 29.5377 31.3335 28.4798 31.1227C27.4218 30.9119 26.45 30.391 25.6871 29.626C24.9242 28.861 24.4046 27.8862 24.194 26.8248C23.9834 25.7635 24.0913 24.6634 24.5039 23.6635C24.9166 22.6637 25.6155 21.8091 26.5123 21.2078C27.4091 20.6066 28.4635 20.2856 29.5421 20.2856C30.9877 20.2863 32.3739 20.8626 33.3964 21.8879C34.4188 22.9132 34.9938 24.3038 34.9951 25.7541Z" fill="#FEE01A"/>
<path d="M3.47975 17.793C2.46381 18.8123 1.65792 20.0223 1.1081 21.3541C0.558275 22.6858 0.275284 24.1132 0.275284 25.5546C0.275284 26.9961 0.558275 28.4235 1.1081 29.7552C1.65792 31.087 2.46381 32.297 3.47975 33.3163L18.9547 17.793C16.9025 15.7343 14.1193 14.5778 11.2172 14.5778C8.31515 14.5778 5.53194 15.7343 3.47975 17.793Z" fill="#FEE01A"/>
<path d="M3.47975 33.3188C5.53194 35.3775 8.31515 36.534 11.2172 36.534C14.1193 36.534 16.9025 35.3775 18.9546 33.3188L11.2172 25.5559L3.47975 33.3163V33.3188Z" fill="#EB3B81"/>
</g>
<defs>
<clipPath id="clip0_287_941">
<rect width="58" height="87" fill="white"/>
</clipPath>
</defs>
</svg>
