<svg width="176" height="80" viewBox="0 0 176 80" fill="none" xmlns="http://www.w3.org/2000/svg">
<path d="M40.5474 6.46473H42.0279L42.0074 3.58957L18.6557 3.58374L18.6293 6.49098H17.1166L17.0786 12.1188H15.4986V14.9327L13.9976 14.9998L13.9683 20.6102L12.4703 20.7122L12.4 23.5028L10.899 23.6078L10.8376 29.1948L9.35709 29.2677L9.3249 32.0525L21.7337 32.0787L21.7659 34.9801L20.2795 35.0151L20.2327 37.7357L18.7025 37.8261L18.641 40.6255L17.1196 40.71L17.0903 46.3321L15.5571 46.4195L15.4898 49.2101L14.0034 49.2889L13.9508 51.992L12.4439 52.1145L12.4117 57.7131L10.8083 57.719V60.6087H9.33368L9.24883 66.3036L7.83561 66.3095L7.78587 69.1263L6.16783 69.1321L6.14735 71.9956H4.65221L4.6405 74.8329L6.68865 74.8212L6.73546 71.9956H8.35057L8.37398 69.1263H10.7879L10.82 66.3328L12.4673 66.3095L12.4586 63.4839L14.0356 63.4576V60.632L17.0113 60.5796L17.0318 57.6607L18.6293 57.7015L18.6908 54.9517L20.2766 54.905L20.2825 52.062L23.3371 52.0328L23.4044 49.2189H24.9639V46.3962H26.4357L26.4825 43.5152L29.5664 43.4511L29.6191 40.675L31.1581 40.5497L31.2283 37.8174L32.6796 37.7445L32.7586 34.9451L35.8367 34.8635L35.8923 32.1108L37.3933 31.9912L37.484 29.2269L40.5269 29.1715L40.5152 23.5786L32.7206 23.5466L32.7469 20.6918L34.3181 20.6743V17.8633L35.8601 17.8546L35.8923 14.9852H37.4459L37.4606 12.1626L38.9498 12.1363L38.944 9.3603H40.5035L40.5591 6.47056L40.5474 6.46473ZM18.7288 49.2014L18.6937 52.0503C18.6937 52.0503 17.5409 52.0299 17.0903 52.0386V54.8963L15.6098 54.943L15.5922 52.0474L17.0903 52.0357L17.1488 49.1985H18.7288V49.2014ZM35.7723 9.29615H35.7664L35.743 12.0984L34.283 12.1363L34.2596 14.9007L32.6767 14.9327L32.6503 17.8662L31.1142 17.8487L31.0879 20.756L29.5869 20.7618L29.5606 23.5407H28.0303L28.0391 26.4013L35.8016 26.4392L35.7547 29.1744L34.3123 29.2298L34.2625 32.0729L31.0879 32.105L31.0674 34.8489L29.6308 34.8752V34.8897L29.5313 37.7678L28.0098 37.8028L27.9864 40.6575L24.9552 40.6721H24.923V43.4423L23.46 43.4627V43.4686V43.4773L23.4308 46.402L21.7776 46.3787L21.725 49.2597L18.723 49.2014L18.6996 46.3845L20.2035 46.37L20.2444 40.7246L21.8917 40.7042L21.88 37.8349V37.8232L23.3167 37.829V37.762L23.3722 35.0443L23.6795 35.0268L24.8908 35.0093V34.9568L24.9054 29.2677L13.9625 29.2823L13.9947 23.5786C14.0473 23.5699 14.0971 23.5641 14.1439 23.5553L15.5161 23.462L15.6186 20.788L17.0844 20.6714L17.1225 14.9969L18.6615 14.9415L18.6878 9.31073L18.8722 9.29907H20.2561L20.2942 6.48223H35.7401L37.3464 6.4764L37.3757 9.30198H35.7664L35.7723 9.29615Z" fill="#F07B57"/>
<path d="M20.3001 6.47062L20.2621 9.29329H18.8781L18.6938 9.30204L18.6675 14.9328L17.1284 14.9853L17.0904 20.6627L15.6245 20.7794L15.5221 23.4533L14.1499 23.5466C14.1001 23.5554 14.0533 23.5612 14.0006 23.5699L13.9684 29.2736L24.9114 29.259L24.8968 34.9452V34.9977L23.6854 35.0152L23.3782 35.0327L23.3226 37.7504V37.8174L21.886 37.8116V37.8233L21.8977 40.6926L20.2504 40.713L20.2094 46.3584L21.7807 46.3671L21.8567 43.4599L23.4631 43.4657V43.457L23.4543 40.6693L24.926 40.6634H24.9582L24.9875 37.8116L28.0041 37.7999L28.0714 34.884H29.6338V34.8694L29.6543 32.1342L31.0909 32.0963L31.1319 29.2386L24.9114 29.2503L24.9758 23.4766L26.3919 23.4825L26.4299 20.7385L29.587 20.7502L29.5665 17.8313L31.1114 17.84L31.1173 14.9386L32.6768 14.9328L32.6826 12.1247H34.2802L34.2685 9.29329L35.7607 9.28163H35.7666L35.7431 6.45312H20.2972L20.3001 6.47062Z" fill="#F9C169"/>
<path d="M17.149 49.2043L17.0875 52.0387L18.6939 52.0503L18.729 49.2014L17.149 49.2043Z" fill="#F9C169"/>
<path d="M20.2094 46.37L18.7054 46.3817V46.3846L18.7289 49.2014L20.145 49.2306L20.2094 46.37Z" fill="#F9C169"/>
<path d="M17.0873 52.0387V54.8993L15.6097 54.9459L15.5922 52.0504L17.0873 52.0387Z" fill="#F9C169"/>
<path d="M23.4337 46.402L21.7835 46.3787L21.7308 49.2597L20.145 49.2188L20.2093 46.3699L21.7835 46.3787L21.8595 43.4714L23.4659 43.4743L23.4337 46.402Z" fill="#FFE36C"/>
<path d="M24.9259 43.4423L23.4659 43.4627V43.4656L23.4571 40.6809L24.9288 40.675L24.9259 43.4423Z" fill="#FFE36C"/>
<path d="M29.5343 37.7708L28.0128 37.8029L27.9894 40.6605L24.9581 40.6722L24.9874 37.8203L28.004 37.8087L28.0684 34.8927H29.6308L29.5343 37.7708Z" fill="#FFE36C"/>
<path d="M35.7401 12.0984L34.2801 12.1363L34.2596 14.9007L32.6766 14.9327L32.6503 17.8662L31.1113 17.8516L31.0879 20.7589L29.5869 20.7618L29.5576 23.5407L28.0303 23.5436L28.0361 26.4013L35.8015 26.4421L35.7547 29.1773L34.3122 29.2327L34.2654 32.0758L31.0908 32.1079L31.0703 34.8518L29.6308 34.8781L29.6542 32.1429L31.0908 32.1079L31.1318 29.2502L24.9113 29.259L24.9756 23.4882L26.3918 23.4941L26.4269 20.7501L29.5869 20.7618L29.5664 17.8429L31.1113 17.8516L31.1201 14.9502L32.6766 14.9444L32.6854 12.1363H34.2801L34.2713 9.30489L35.7635 9.29614L35.7401 12.0984Z" fill="#FFE36C"/>
<path d="M35.7723 9.29614L35.746 6.46764L37.3523 6.46472L37.3816 9.29323L35.7723 9.29614Z" fill="#FFE36C"/>
<path d="M80.6325 63.8135H61.1576L61.1108 68.6423H51.2855L51.3089 49.1927L56.1601 49.1577L56.2186 44.3114L65.9561 44.2822L66.0117 39.4563L75.755 39.4475L75.7813 44.2676L85.6095 44.3318L85.6797 49.1519L90.4373 49.1869L90.446 68.6423L80.7115 68.6511L80.6296 63.8164L80.6325 63.8135ZM66.0614 49.1811V54.0391H75.7667V49.1811H66.0614Z" fill="white"/>
<path d="M139.403 58.9204L168.776 58.9292L168.788 68.0562C168.788 68.3682 168.682 68.6627 168.276 68.6627L134.437 68.6569L134.367 63.8222L129.612 63.7814V44.3143L134.373 44.2793L134.405 39.4533L168.782 39.4446L168.738 44.2968L139.432 44.3172V49.1606L168.714 49.1723L168.75 54.0332L139.408 54.0449L139.403 58.9175V58.9204Z" fill="white"/>
<path d="M95.3762 63.7755L95.3499 54.042L105.114 54.0478L105.149 58.9117L114.775 58.9233L114.854 54.1149C114.88 52.4878 114.921 50.9044 114.892 49.1956L95.3499 49.1781V39.4446H124.723V63.8572L119.875 63.9243L119.758 68.654L100.728 68.6744C100.391 68.6744 100.236 68.5023 100.233 68.2049L100.186 63.8514L95.3762 63.7785V63.7755Z" fill="white"/>
<path d="M163.875 15.1836L163.854 34.5486H153.971V15.1807L144.283 15.1632L144.254 5.33923L168.776 5.34798L168.788 14.5596C168.788 14.9387 168.539 15.1661 168.176 15.1661L163.878 15.1807L163.875 15.1836Z" fill="white"/>
<path d="M149.184 34.5253L139.335 34.6011C137.697 34.7352 136.111 34.7177 134.481 34.6069L129.609 34.534V5.35087L139.312 5.33337L139.324 24.7859L149.137 24.8209L149.181 34.5224L149.184 34.5253Z" fill="white"/>
<path d="M119.784 34.537L100.254 34.5545L100.21 29.8102L95.3557 29.746V10.2293L100.189 10.136L100.248 5.35088L119.767 5.3363L119.866 10.1331L124.703 10.2264L124.714 29.711L119.84 29.8131L119.787 34.5311L119.784 34.537ZM105.131 15.0553V24.8151H114.93V15.0553H105.131Z" fill="white"/>
<path d="M85.7265 19.9366C85.7499 19.922 85.3988 19.8812 85.3988 19.9512L85.3871 29.5098L75.7872 29.5214C75.7169 29.5272 75.7667 29.8538 75.7784 29.848L75.752 34.5544L66.0585 34.5252L66.0468 29.8276C66.0409 28.1742 66.1697 26.48 66.1492 24.8238L75.7608 24.6721L75.7755 15.3731L79.0671 15.3381C79.6084 15.3322 80.1556 15.1544 80.6617 15.2331C80.7437 15.099 80.7115 14.9473 80.7173 14.8599L80.7583 5.35083H90.4489L90.446 19.9045L85.7265 19.9337V19.9366Z" fill="white"/>
<path d="M66.1492 24.8237C66.1668 26.4829 66.0409 28.1742 66.0468 29.8275L56.2157 29.7517L56.1777 19.9511L51.2826 19.8957L51.2972 5.34786L61.1166 5.33911L61.1546 14.9939L66.0439 15.096L66.155 24.8237H66.1492Z" fill="white"/>
<path d="M85.7266 19.9366L85.7119 28.8828C85.7119 29.2444 85.6739 29.4631 85.4515 29.6555C85.2643 29.8188 85.0741 29.8276 84.761 29.8276L75.7814 29.8451C75.7814 29.8451 75.7199 29.5243 75.7901 29.5185L85.3901 29.5068L85.4018 19.9482C85.4018 19.8782 85.7529 19.922 85.7295 19.9336L85.7266 19.9366Z" fill="white"/>
<path d="M80.7174 14.8628C80.7144 14.9474 80.7437 15.1019 80.6618 15.236C80.1556 15.1573 79.6084 15.3352 79.0671 15.341L75.7755 15.376C75.7755 15.3119 75.7111 15.1311 75.7813 15.0552L80.0064 15.0436C80.2931 15.0436 80.5272 14.9503 80.7144 14.8657L80.7174 14.8628Z" fill="white"/>
</svg>
