<svg width="25" height="24" viewBox="0 0 25 24" fill="none" xmlns="http://www.w3.org/2000/svg">
<path d="M12.4806 1.875C15.442 1.875 17.9633 2.86378 20.0426 4.8404C21.0378 5.79248 21.7944 6.88062 22.3112 8.10386C22.8277 9.32742 23.0867 10.626 23.0867 12.0001C23.0867 13.3863 22.831 14.6852 22.3211 15.8961C21.8107 17.1073 21.0573 18.1774 20.0622 19.1055C19.029 20.0816 17.8568 20.8293 16.5457 21.3475C15.2352 21.8658 13.8801 22.125 12.4813 22.125C11.0825 22.125 9.74326 21.8693 8.4639 21.3564C7.18488 20.8445 6.03785 20.1031 5.02317 19.133C4.00848 18.1629 3.23663 17.0687 2.70729 15.8512C2.17794 14.6336 1.91327 13.3503 1.91327 12.0001C1.91327 10.662 2.18092 9.37552 2.71655 8.13993C3.25218 6.90435 4.03065 5.79849 5.05129 4.82205C7.06776 2.85777 9.5441 1.875 12.4806 1.875ZM12.519 3.70132C10.0992 3.70132 8.06359 4.50912 6.41236 6.12408C5.5803 6.93188 4.94079 7.83871 4.49349 8.84521C4.04553 9.85171 3.82222 10.9035 3.82222 12.0005C3.82222 13.0854 4.04553 14.1312 4.49349 15.137C4.94112 16.1442 5.5803 17.0421 6.41236 17.8316C7.2441 18.6214 8.18269 19.2235 9.22947 19.6399C10.2753 20.0556 11.372 20.2635 12.519 20.2635C13.6531 20.2635 14.7522 20.0531 15.8185 19.631C16.8835 19.2086 17.8436 18.6005 18.7011 17.805C20.352 16.2622 21.1771 14.3277 21.1771 12.0008C21.1771 10.8797 20.9627 9.81912 20.5343 8.81863C20.1065 7.81814 19.4822 6.9265 18.6637 6.14243C16.9612 4.51513 14.9136 3.70132 12.519 3.70132ZM12.3863 10.3191L10.968 11.0243C10.8165 10.7234 10.6309 10.5121 10.4106 10.3915C10.1899 10.2713 9.98511 10.2108 9.79587 10.2108C8.85099 10.2108 8.37789 10.8073 8.37789 12.0008C8.37789 12.5431 8.49765 12.9766 8.73685 13.3022C8.97638 13.6278 9.32938 13.7907 9.79587 13.7907C10.4135 13.7907 10.8483 13.5012 11.1007 12.9228L12.4049 13.5556C12.1276 14.0502 11.7432 14.4387 11.2516 14.7219C10.7606 15.0054 10.2184 15.1468 9.62582 15.1468C8.6806 15.1468 7.91769 14.87 7.33806 14.315C6.75842 13.7607 6.46861 12.9892 6.46861 12.0011C6.46861 11.0367 6.76173 10.2716 7.34765 9.7049C7.93357 9.13853 8.67399 8.85502 9.56924 8.85502C10.8804 8.85439 11.819 9.34261 12.3863 10.3191ZM18.4927 10.3191L17.0935 11.0243C16.9423 10.7234 16.7561 10.5121 16.5357 10.3915C16.3147 10.2713 16.1033 10.2108 15.9025 10.2108C14.9573 10.2108 14.4842 10.8073 14.4842 12.0008C14.4842 12.5431 14.6043 12.9766 14.8435 13.3022C15.0827 13.6278 15.4354 13.7907 15.9025 13.7907C16.5195 13.7907 16.9546 13.5012 17.2064 12.9228L18.5297 13.5556C18.2402 14.0502 17.8492 14.4387 17.3582 14.7219C16.8666 15.0054 16.331 15.1468 15.7513 15.1468C14.7932 15.1468 14.028 14.87 13.455 14.315C12.8806 13.7607 12.5941 12.9892 12.5941 12.0011C12.5941 11.0367 12.8869 10.2716 13.4735 9.7049C14.0591 9.13853 14.7995 8.85502 15.6944 8.85502C17.0052 8.85439 17.9385 9.34261 18.4927 10.3191Z" fill="white"/>
</svg>
