<svg width="10" height="25" viewBox="0 0 10 25" fill="none" xmlns="http://www.w3.org/2000/svg">
<path d="M0 8.50422V13.8125C0 15.0041 0.966663 15.975 2.15834 15.975H2.24167L2.62916 24.6C2.6375 24.825 2.82083 25 3.04583 25H6.95408C7.17908 25 7.3624 24.825 7.37075 24.6L7.75824 15.975H7.84157C9.03325 15.975 9.99991 15.0041 9.99991 13.8125V8.50422C9.99991 7.31255 9.03325 6.34589 7.84157 6.34589H2.15839C0.966717 6.34589 0 7.31255 0 8.50422Z" fill="#838383"/>
<path d="M7.89545 2.89572C7.89545 4.49467 6.59858 5.79144 4.99973 5.79144C3.40088 5.79144 2.104 4.49457 2.104 2.89572C2.104 1.29687 3.40088 0 4.99973 0C6.59858 0 7.89545 1.29687 7.89545 2.89572Z" fill="#838383"/>
</svg>
