<svg width="25" height="25" viewBox="0 0 25 25" fill="none" xmlns="http://www.w3.org/2000/svg">
<path d="M12.5 0C5.625 0 0 5.625 0 12.5C0 19.375 5.625 25 12.5 25C19.375 25 25 19.375 25 12.5C25 5.625 19.375 0 12.5 0ZM12.5 22.5C10.25 22.5 8.125 21.75 6.375 20.375L8 18.75C7.7 18.5125 7.1375 18.4375 7.1625 18.0875C7.2125 17.425 7.7625 15.8375 7.9125 15.2125L4.625 18.5C3.25 16.875 2.5 14.75 2.5 12.5C2.5 7 7 2.5 12.5 2.5C14.75 2.5 16.875 3.25 18.625 4.625L17 6.25C17.2875 6.4875 17.925 6.7375 17.85 7.1125C17.7 7.9 17.5625 8.6 17.15 9.9625L20.3625 6.5C21.7375 8.125 22.4875 10.25 22.4875 12.5C22.4875 18 17.9875 22.5 12.4875 22.5H12.5ZM13.825 10.9625C12.5125 10.4375 12.025 10.1 12.025 9.75C12.025 9.1875 12.7125 9.1125 13.125 9.1125C14.1625 9.1125 14.8375 9.425 15.2875 9.6375L15.775 9.8625L16.4375 7.125L16.1875 7C15.5375 6.6625 14.8 6.4625 13.9375 6.3875V4.775H11.6V6.5625C9.8375 7.0375 8.75 8.3625 8.75 10.075C8.75 12.2625 10.4875 13.175 12.0125 13.725C13.3 14.1875 13.5625 14.55 13.5625 14.95C13.5625 15.65 12.5875 15.7 12.2875 15.7C11.1125 15.7 10.1375 15.225 9.6625 14.95L9.275 14.725L8.6 17.5625L8.825 17.7C9.4875 18.1125 10.5 18.4125 11.5125 18.5V20.2375H13.85V18.325C15.675 17.875 16.85 16.475 16.85 14.6875C16.85 12.9 15.9375 11.775 13.8125 10.975L13.825 10.9625Z" fill="#838383"/>
</svg>
