<svg width="15" height="23" viewBox="0 0 15 23" fill="none" xmlns="http://www.w3.org/2000/svg">
<path fill-rule="evenodd" clip-rule="evenodd" d="M0.0289835 11.4645L3.77963 0.409988C3.84078 0.173127 4.04286 0 4.28304 0L11.7163 0.00190237C11.8031 0.00380499 11.8909 0.0256834 11.9706 0.0751479C12.2206 0.226395 12.3092 0.565984 12.1683 0.834245L8.84303 7.15624L13.535 7.15719C13.6432 7.15814 13.7522 7.19334 13.8452 7.26848C14.0757 7.45302 14.1244 7.80213 13.9534 8.04945L3.7764 22.7509C3.65498 22.9478 3.42543 23.0458 3.20299 22.9792C2.92558 22.8955 2.76428 22.5873 2.84229 22.2905L5.47892 12.2149L0.520338 12.214C0.460958 12.213 0.401577 12.2026 0.343084 12.1797C0.0727723 12.0742 -0.0663766 11.7536 0.0311161 11.4635L0.0289835 11.4645Z" fill="#838383"/>
</svg>
