<svg width="25" height="25" viewBox="0 0 25 25" fill="none" xmlns="http://www.w3.org/2000/svg">
<path d="M12.5 0C19.3918 0 25 5.60825 25 12.5C25 19.3918 19.3918 25 12.5 25C5.60825 25 1.90735e-06 19.3918 1.90735e-06 12.5C1.90735e-06 5.60825 5.60825 0 12.5 0ZM8.72165 14.549L8.90464 14.75C9.0567 14.9175 9.31186 15.134 9.6701 15.2113L9.86598 15.2526L9.93041 16.8273L6.34278 20.4149C8.12371 21.7938 10.299 22.549 12.5026 22.549C18.0309 22.5232 22.5284 18.0155 22.5284 12.4974C22.5284 10.2938 21.7732 8.11856 20.3943 6.33763L16.0722 10.6598L15.9098 10.3505C15.7036 9.96134 15.3969 9.59536 15.0232 9.29639L14.8454 9.15464L14.9639 8.96134C15.201 8.57474 15.3351 8.26031 15.3943 7.94072L15.4098 7.8634L18.6649 4.60825C16.884 3.22938 14.7088 2.47423 12.5052 2.47423C6.9768 2.47423 2.47938 6.97165 2.47938 12.5C2.47938 14.732 3.23454 16.9098 4.6134 18.6624L8.7268 14.549H8.72165ZM10.9536 9.89691C11.3918 10.1546 11.933 10.3093 12.5 10.3093C13.067 10.3093 13.5825 10.1546 14.0464 9.89691C14.6907 10.1804 15.1804 10.799 15.2577 11.5464L15.4639 13.7629C15.4897 13.9691 15.3608 14.1753 15.1289 14.2268C14.8196 14.2783 14.5103 14.3299 14.1753 14.3814L13.9433 19.201C13.9433 19.433 13.7371 19.6134 13.5052 19.6134H11.4691C11.2371 19.6134 11.0567 19.433 11.0309 19.201L10.799 14.3814C10.4639 14.3299 10.1546 14.2783 9.84536 14.2268C9.63918 14.1753 9.51031 13.9691 9.53608 13.7629L9.74227 11.5464C9.81959 10.799 10.3093 10.2062 10.9536 9.89691ZM12.5 5.41237C11.433 5.41237 10.567 6.27835 10.567 7.34536C10.567 8.41237 11.433 9.27835 12.5 9.27835C13.567 9.27835 14.433 8.41237 14.433 7.34536C14.433 6.27835 13.567 5.41237 12.5 5.41237Z" fill="#838383"/>
</svg>
