<svg width="17" height="20" viewBox="0 0 17 20" fill="none" xmlns="http://www.w3.org/2000/svg">
<path fill-rule="evenodd" clip-rule="evenodd" d="M15.3326 4.4988L15.8992 4.87827C16.2233 5.09773 16.6653 5.00857 16.8806 4.67939C17.0982 4.3525 17.0098 3.90673 16.6857 3.68956L14.5597 2.26083C14.2356 2.04138 13.7937 2.13053 13.5761 2.45971C13.3585 2.7866 13.4469 3.23237 13.7733 3.44954L14.213 3.74443L13.5806 4.55824C12.3409 3.62327 10.8405 3.02206 9.20862 2.8849V1.42645H10.6252C11.0173 1.42645 11.3323 1.10641 11.3323 0.713224C11.3323 0.320037 11.015 0 10.6252 0H6.37555C5.98345 0 5.66841 0.320037 5.66841 0.713224C5.66841 1.10641 5.98572 1.42645 6.37555 1.42645H7.79209V2.8849C3.43142 3.24837 0 6.93565 0 11.4276C0 16.1596 3.80765 20 8.49922 20C13.1908 20 16.9984 16.1596 16.9984 11.4276C16.9984 9.10961 16.0805 7.00423 14.596 5.4612L15.3303 4.4988H15.3326ZM15.659 11.4847C15.5547 13.7227 15.013 15.1903 13.0389 17.0282L8.49696 11.4847V4.26792C10.4325 3.99817 15.489 6.04641 15.6567 11.4847H15.659Z" fill="#838383"/>
</svg>
