<svg width="21" height="24" viewBox="0 0 21 24" fill="none" xmlns="http://www.w3.org/2000/svg">
<path d="M21 8.17477H0V6.75877C0 4.85354 1.5661 3.31015 3.49938 3.31015H4.2V1.55262C4.2 0.696 4.90437 0 5.77547 0C6.64657 0 7.35094 0.694154 7.35094 1.55262V3.31015H13.6509V1.55262C13.6509 0.696 14.3553 0 15.2264 0C16.0975 0 16.8019 0.694154 16.8019 1.55262V3.31015H17.5025C19.4358 3.31015 21.0019 4.85354 21.0019 6.75877V8.17477H21ZM21 9.28246V20.5532C21 22.4585 19.4339 24.0018 17.5006 24.0018H3.49938C1.5661 24.0018 0 22.4585 0 20.5532V9.28246H21ZM15.3819 4.55262C14.6569 4.55262 14.0687 5.13231 14.0687 5.84492C14.0687 6.55754 14.6569 7.13723 15.3819 7.13723C16.1069 7.13723 16.6951 6.55754 16.6951 5.84492C16.6951 5.13231 16.1069 4.55262 15.3819 4.55262ZM5.77547 4.44738C5.02239 4.44738 4.40981 5.04923 4.40981 5.79138C4.40981 6.53354 5.02052 7.13538 5.77547 7.13538C6.53042 7.13538 7.14112 6.53354 7.14112 5.79138C7.14112 5.04923 6.53042 4.44738 5.77547 4.44738ZM10.4906 21.6C13.4842 21.6 15.9214 19.2 15.9233 16.2443C15.9233 13.2905 13.4842 10.8923 10.4906 10.8923C7.49706 10.8923 5.05798 13.2905 5.05798 16.2443C5.05798 19.1982 7.49518 21.6 10.4906 21.6ZM11.2137 15.4098C10.4888 15.1218 10.219 14.9428 10.219 14.7508C10.219 14.4462 10.6012 14.4 10.8297 14.4C11.4011 14.4 11.7776 14.5717 12.0268 14.6862L12.3003 14.808L12.6637 13.3126L12.5251 13.2406C12.1673 13.0578 11.7607 12.9489 11.2812 12.9083V12.0295H9.99046V13.0043C9.01445 13.2628 8.41686 13.9828 8.41686 14.9169C8.41686 16.1132 9.38162 16.608 10.2209 16.9071C10.9327 17.1618 11.0789 17.3575 11.0789 17.5735C11.0789 17.9538 10.5393 17.9834 10.3745 17.9834C9.72257 17.9834 9.18305 17.7286 8.92078 17.5754L8.70723 17.4517L8.33069 19.0006L8.45433 19.0763C8.8215 19.2997 9.37788 19.4622 9.94362 19.5138V20.4609H11.2343V19.4215C12.2459 19.176 12.8922 18.4117 12.8922 17.4369C12.8922 16.4622 12.3902 15.8474 11.2137 15.4098Z" fill="#838383"/>
</svg>
