<svg width="42" height="25" viewBox="0 0 42 25" fill="none" xmlns="http://www.w3.org/2000/svg">
<path d="M0 8.50422V13.8125C0 15.0041 0.966663 15.975 2.15834 15.975H2.24167L2.62916 24.6C2.6375 24.825 2.82083 25 3.04583 25H6.95408C7.17908 25 7.3624 24.825 7.37075 24.6L7.75824 15.975H7.84157C9.03325 15.975 9.99991 15.0041 9.99991 13.8125V8.50422C9.99991 7.31255 9.03325 6.34589 7.84157 6.34589H2.15839C0.966717 6.34589 0 7.31255 0 8.50422Z" fill="#838383"/>
<path d="M7.89545 2.89572C7.89545 4.49467 6.59858 5.79144 4.99973 5.79144C3.40088 5.79144 2.104 4.49457 2.104 2.89572C2.104 1.29687 3.40088 0 4.99973 0C6.59858 0 7.89545 1.29687 7.89545 2.89572Z" fill="#838383"/>
<path d="M11 8.50422V13.8125C11 15.0041 11.9667 15.975 13.1583 15.975H13.2417L13.6292 24.6C13.6375 24.825 13.8208 25 14.0458 25H17.9541C18.1791 25 18.3624 24.825 18.3707 24.6L18.7582 15.975H18.8416C20.0332 15.975 20.9999 15.0041 20.9999 13.8125V8.50422C20.9999 7.31255 20.0332 6.34589 18.8416 6.34589H13.1584C11.9667 6.34589 11 7.31255 11 8.50422Z" fill="#838383"/>
<path d="M18.8955 2.89572C18.8955 4.49467 17.5986 5.79144 15.9997 5.79144C14.4009 5.79144 13.104 4.49457 13.104 2.89572C13.104 1.29687 14.4009 0 15.9997 0C17.5986 0 18.8955 1.29687 18.8955 2.89572Z" fill="#838383"/>
<path d="M22 8.50422V13.8125C22 15.0041 22.9667 15.975 24.1583 15.975H24.2417L24.6292 24.6C24.6375 24.825 24.8208 25 25.0458 25H28.9541C29.1791 25 29.3624 24.825 29.3707 24.6L29.7582 15.975H29.8416C31.0332 15.975 31.9999 15.0041 31.9999 13.8125V8.50422C31.9999 7.31255 31.0332 6.34589 29.8416 6.34589H24.1584C22.9667 6.34589 22 7.31255 22 8.50422Z" fill="#838383"/>
<path d="M29.8955 2.89572C29.8955 4.49467 28.5986 5.79144 26.9997 5.79144C25.4009 5.79144 24.104 4.49457 24.104 2.89572C24.104 1.29687 25.4009 0 26.9997 0C28.5986 0 29.8955 1.29687 29.8955 2.89572Z" fill="#838383"/>
<path d="M38.8612 13.1888V10H36.1388V13.1888H33V15.782H36.1388V19H38.8612V15.782H42V13.1888H38.8612Z" fill="#838383"/>
</svg>
