<svg width="35" height="20" viewBox="0 0 35 20" fill="none" xmlns="http://www.w3.org/2000/svg">
<path fill-rule="evenodd" clip-rule="evenodd" d="M15.3326 4.4988L15.8992 4.87827C16.2233 5.09773 16.6653 5.00857 16.8806 4.67939C17.0982 4.3525 17.0098 3.90673 16.6857 3.68956L14.5597 2.26083C14.2356 2.04138 13.7937 2.13053 13.5761 2.45971C13.3585 2.7866 13.4469 3.23237 13.7733 3.44954L14.213 3.74443L13.5806 4.55824C12.3409 3.62327 10.8405 3.02206 9.20862 2.8849V1.42645H10.6252C11.0173 1.42645 11.3323 1.10641 11.3323 0.713224C11.3323 0.320037 11.015 0 10.6252 0H6.37555C5.98345 0 5.66841 0.320037 5.66841 0.713224C5.66841 1.10641 5.98572 1.42645 6.37555 1.42645H7.79209V2.8849C3.43142 3.24837 0 6.93565 0 11.4276C0 16.1596 3.80765 20 8.49922 20C13.1908 20 16.9984 16.1596 16.9984 11.4276C16.9984 9.10961 16.0805 7.00423 14.596 5.4612L15.3303 4.4988H15.3326ZM15.659 11.4847C15.5547 13.7227 15.013 15.1903 13.0389 17.0282L8.49696 11.4847V4.26792C10.4325 3.99817 15.489 6.04641 15.6567 11.4847H15.659Z" fill="#838383"/>
<path fill-rule="evenodd" clip-rule="evenodd" d="M33.3326 4.4988L33.8992 4.87827C34.2233 5.09773 34.6653 5.00857 34.8806 4.67939C35.0982 4.3525 35.0098 3.90673 34.6857 3.68956L32.5597 2.26083C32.2356 2.04138 31.7937 2.13053 31.5761 2.45971C31.3585 2.7866 31.4469 3.23237 31.7733 3.44954L32.213 3.74443L31.5806 4.55824C30.3409 3.62327 28.8405 3.02206 27.2086 2.8849V1.42645H28.6252C29.0173 1.42645 29.3323 1.10641 29.3323 0.713224C29.3323 0.320037 29.015 0 28.6252 0H24.3755C23.9835 0 23.6684 0.320037 23.6684 0.713224C23.6684 1.10641 23.9857 1.42645 24.3755 1.42645H25.7921V2.8849C21.4314 3.24837 18 6.93565 18 11.4276C18 16.1596 21.8077 20 26.4992 20C31.1908 20 34.9984 16.1596 34.9984 11.4276C34.9984 9.10961 34.0805 7.00423 32.596 5.4612L33.3303 4.4988H33.3326ZM33.659 11.4847C33.5547 13.7227 33.013 15.1903 31.0389 17.0282L26.497 11.4847V4.26792C28.4325 3.99817 33.489 6.04641 33.6567 11.4847H33.659Z" fill="#838383"/>
</svg>
