<svg width="57" height="23" viewBox="0 0 57 23" fill="none" xmlns="http://www.w3.org/2000/svg">
<path fill-rule="evenodd" clip-rule="evenodd" d="M14.0842 11.4645L17.8348 0.409988C17.896 0.173127 18.098 0 18.3382 0L25.7714 0.00190237C25.8583 0.00380499 25.946 0.0256834 26.0258 0.0751479C26.2757 0.226395 26.3644 0.565984 26.2234 0.834245L22.8982 7.15624L27.5902 7.15719C27.6983 7.15814 27.8073 7.19334 27.9004 7.26848C28.1308 7.45302 28.1796 7.80213 28.0085 8.04945L17.8316 22.7509C17.7102 22.9478 17.4806 23.0458 17.2582 22.9792C16.9808 22.8955 16.8195 22.5873 16.8975 22.2905L19.5341 12.2149L14.5755 12.214C14.5161 12.213 14.4568 12.2026 14.3983 12.1797C14.1279 12.0742 13.9888 11.7536 14.0863 11.4635L14.0842 11.4645Z" fill="#838383"/>
<path fill-rule="evenodd" clip-rule="evenodd" d="M0.0289835 11.4645L3.77963 0.409988C3.84078 0.173127 4.04286 0 4.28304 0L11.7163 0.00190237C11.8031 0.00380499 11.8909 0.0256834 11.9706 0.0751479C12.2206 0.226395 12.3092 0.565984 12.1683 0.834245L8.84303 7.15624L13.535 7.15719C13.6432 7.15814 13.7522 7.19334 13.8452 7.26848C14.0757 7.45302 14.1244 7.80213 13.9534 8.04945L3.7764 22.7509C3.65498 22.9478 3.42543 23.0458 3.20299 22.9792C2.92558 22.8955 2.76428 22.5873 2.84229 22.2905L5.47892 12.2149L0.520338 12.214C0.460958 12.213 0.401577 12.2026 0.343084 12.1797C0.0727723 12.0742 -0.0663766 11.7536 0.0311161 11.4635L0.0289835 11.4645Z" fill="#838383"/>
<path fill-rule="evenodd" clip-rule="evenodd" d="M28.1403 11.4645L31.891 0.409988C31.9521 0.173127 32.1542 0 32.3944 0L39.8276 0.00190237C39.9145 0.00380499 40.0022 0.0256834 40.082 0.0751479C40.3319 0.226395 40.4205 0.565984 40.2796 0.834245L36.9544 7.15624L41.6464 7.15719C41.7545 7.15814 41.8635 7.19334 41.9566 7.26848C42.187 7.45302 42.2357 7.80213 42.0647 8.04945L31.8877 22.7509C31.7663 22.9478 31.5368 23.0458 31.3143 22.9792C31.0369 22.8955 30.8756 22.5873 30.9536 22.2905L33.5903 12.2149L28.6317 12.214C28.5723 12.213 28.5129 12.2026 28.4544 12.1797C28.1841 12.0742 28.045 11.7536 28.1424 11.4635L28.1403 11.4645Z" fill="#838383"/>
<path fill-rule="evenodd" clip-rule="evenodd" d="M42.1955 11.4645L45.9461 0.409988C46.0073 0.173127 46.2094 0 46.4495 0L53.8828 0.00190237C53.9696 0.00380499 54.0574 0.0256834 54.1371 0.0751479C54.3871 0.226395 54.4757 0.565984 54.3348 0.834245L51.0095 7.15624L55.7015 7.15719C55.8097 7.15814 55.9187 7.19334 56.0117 7.26848C56.2422 7.45302 56.2909 7.80213 56.1199 8.04945L45.9429 22.7509C45.8215 22.9478 45.5919 23.0458 45.3695 22.9792C45.0921 22.8955 44.9308 22.5873 45.0088 22.2905L47.6454 12.2149L42.6868 12.214C42.6275 12.213 42.5681 12.2026 42.5096 12.1797C42.2393 12.0742 42.1001 11.7536 42.1976 11.4635L42.1955 11.4645Z" fill="#838383"/>
</svg>
