<svg width="12" height="22" viewBox="0 0 12 22" fill="none" xmlns="http://www.w3.org/2000/svg">
<path d="M7.58777 8.81589C5.68085 8.06311 4.97074 7.59681 4.97074 7.09704C4.97074 6.30035 5.97806 6.18116 6.57846 6.18116C8.08245 6.18116 9.07181 6.63074 9.72806 6.92976L10.4461 7.24969L11.4016 3.34569L11.0346 3.15959C10.0951 2.68282 9.02194 2.39635 7.7633 2.2918V0H4.36636V2.54272C1.7992 3.21814 0.225399 5.09799 0.225399 7.53407C0.225399 10.6539 2.76263 11.9483 4.97274 12.7283C6.84575 13.3911 7.23072 13.9034 7.23072 14.4659C7.23072 15.4592 5.8125 15.5345 5.37766 15.5345C3.66423 15.5345 2.24402 14.8674 1.55186 14.468L0.989362 14.1439L0 18.188L0.327128 18.3867C1.29056 18.9701 2.75665 19.3945 4.24269 19.5284V22H7.63963V19.2858C10.3025 18.6439 12 16.649 12 14.1084C12 11.5677 10.6775 9.9597 7.58577 8.81798L7.58777 8.81589Z" fill="#838383"/>
</svg>
