<svg width="39" height="26" viewBox="0 0 39 26" fill="none" xmlns="http://www.w3.org/2000/svg">
<path d="M0 8.50422V13.8125C0 15.0041 0.966663 15.975 2.15834 15.975H2.24167L2.62916 24.6C2.6375 24.825 2.82083 25 3.04583 25H6.95408C7.17908 25 7.3624 24.825 7.37075 24.6L7.75824 15.975H7.84157C9.03325 15.975 9.99991 15.0041 9.99991 13.8125V8.50422C9.99991 7.31255 9.03325 6.34589 7.84157 6.34589H2.15839C0.966717 6.34589 0 7.31255 0 8.50422Z" fill="#838383"/>
<path d="M7.89545 2.89572C7.89545 4.49467 6.59858 5.79144 4.99973 5.79144C3.40088 5.79144 2.104 4.49457 2.104 2.89572C2.104 1.29687 3.40088 0 4.99973 0C6.59858 0 7.89545 1.29687 7.89545 2.89572Z" fill="#838383"/>
<path d="M11 8.50422V13.8125C11 15.0041 11.9667 15.975 13.1583 15.975H13.2417L13.6292 24.6C13.6375 24.825 13.8208 25 14.0458 25H17.9541C18.1791 25 18.3624 24.825 18.3707 24.6L18.7582 15.975H18.8416C20.0332 15.975 20.9999 15.0041 20.9999 13.8125V8.50422C20.9999 7.31255 20.0332 6.34589 18.8416 6.34589H13.1584C11.9667 6.34589 11 7.31255 11 8.50422Z" fill="#838383"/>
<path d="M18.8955 2.89572C18.8955 4.49467 17.5986 5.79144 15.9997 5.79144C14.4009 5.79144 13.104 4.49457 13.104 2.89572C13.104 1.29687 14.4009 0 15.9997 0C17.5986 0 18.8955 1.29687 18.8955 2.89572Z" fill="#838383"/>
<path d="M29 8.50422V13.8125C29 15.0041 29.9667 15.975 31.1583 15.975H31.2417L31.6292 24.6C31.6375 24.825 31.8208 25 32.0458 25H35.9541C36.1791 25 36.3624 24.825 36.3707 24.6L36.7582 15.975H36.8416C38.0332 15.975 38.9999 15.0041 38.9999 13.8125V8.50422C38.9999 7.31255 38.0332 6.34589 36.8416 6.34589H31.1584C29.9667 6.34589 29 7.31255 29 8.50422Z" fill="#838383"/>
<path d="M36.8955 2.89572C36.8955 4.49467 35.5986 5.79144 33.9997 5.79144C32.4009 5.79144 31.104 4.49457 31.104 2.89572C31.104 1.29687 32.4009 0 33.9997 0C35.5986 0 36.8955 1.29687 36.8955 2.89572Z" fill="#838383"/>
<path d="M23.9609 25.3922L21.9998 25L26.9998 -2.0355e-05L28.9609 0.392212L23.9609 25.3922Z" fill="#838383"/>
</svg>
